<svg width="56" height="56" viewBox="0 0 56 56" fill="none" xmlns="http://www.w3.org/2000/svg">
<rect width="56" height="56" rx="28" fill="white"/>
<path d="M28 39.375C29.2834 39.375 30.3334 38.325 30.3334 37.0417H25.6667C25.6667 38.325 26.7167 39.375 28 39.375ZM35 32.375V26.5417C35 22.96 33.0984 19.9617 29.75 19.1683V18.375C29.75 17.4067 28.9684 16.625 28 16.625C27.0317 16.625 26.25 17.4067 26.25 18.375V19.1683C22.9134 19.9617 21 22.9483 21 26.5417V32.375L18.6667 34.7083V35.875H37.3334V34.7083L35 32.375ZM32.6667 33.5417H23.3334V26.5417C23.3334 23.6483 25.095 21.2917 28 21.2917C30.905 21.2917 32.6667 23.6483 32.6667 26.5417V33.5417Z" fill="#616161"/>
<circle cx="34.4167" cy="21.5833" r="5.25" fill="#00D095"/>
</svg>
