<svg width="32" height="32" viewBox="0 0 32 32" fill="none" xmlns="http://www.w3.org/2000/svg">
<path d="M10.7902 0C14.2902 0 17.7802 0 21.2802 0C21.4102 0.01 21.5502 0.04 21.6802 0.04C22.6502 0.04 23.6102 0.11 24.5602 0.3C28.1702 0.99 30.5402 3.03 31.4902 6.64C31.9002 8.2 31.9202 9.79 31.9502 11.38C32.0002 14.5 32.0002 17.62 31.9502 20.74C31.9302 22.01 31.9002 23.27 31.6702 24.53C30.9802 28.35 28.5802 30.85 24.7802 31.63C23.1602 31.96 21.5202 31.97 19.8702 31.98C17.3802 32 14.9002 31.98 12.4102 31.99C11.0102 31.99 9.60024 31.99 8.21024 31.8C6.77024 31.61 5.39024 31.25 4.15024 30.47C1.81024 29.01 0.620238 26.82 0.220238 24.14C0.110238 23.4 0.0702344 22.65 -0.00976562 21.91V9.86C0.0702344 9.16 0.110238 8.45 0.220238 7.76C0.520238 5.88 1.20024 4.18 2.54024 2.79C4.25024 1.01 6.41024 0.29 8.81024 0.11C9.47024 0.0600001 10.1402 0.04 10.8002 0H10.7902ZM2.84024 16.04C2.84024 16.04 2.83024 16.04 2.82024 16.04C2.82024 17.53 2.80024 19.02 2.82024 20.5C2.84024 21.7 2.88024 22.91 3.12024 24.1C3.63024 26.63 5.16024 28.18 7.69024 28.69C8.76023 28.91 9.86024 28.98 10.9502 28.99C13.5702 29.02 16.1902 29.01 18.8202 29.01C20.5502 29.01 22.2702 29.03 23.9902 28.75C26.4902 28.34 28.1502 26.8 28.6802 24.36C28.9002 23.37 28.9902 22.36 29.0002 21.36C29.0302 18.69 29.0302 16.01 29.0202 13.34C29.0202 11.62 29.0402 9.91 28.8202 8.2C28.4702 5.54 27.0502 3.94 24.4502 3.3C23.1802 2.99 21.8802 2.92 20.5802 2.89C18.8202 2.86 17.0602 2.87 15.3102 2.87C13.4602 2.87 11.6102 2.85 9.76023 2.93C9.01023 2.96 8.27024 3.03 7.53024 3.19C6.04024 3.52 4.78024 4.19 3.98024 5.55C3.60024 6.19 3.36024 6.89 3.21024 7.62C2.82024 9.54 2.86024 11.49 2.86024 13.43C2.86024 14.29 2.86024 15.16 2.86024 16.02L2.84024 16.04Z" fill="white"/>
<path d="M15.97 7.72998C20.5 7.72998 24.22 11.44 24.23 15.97C24.23 20.5 20.53 24.24 15.99 24.22C11.43 24.2 7.75 20.61 7.75 15.99C7.75 11.38 11.42 7.78998 15.98 7.73998L15.97 7.72998ZM21.26 15.99C21.26 13.06 18.92 10.7 16 10.69C13.07 10.69 10.69 13.04 10.69 15.94C10.69 18.87 13.06 21.26 15.97 21.26C18.89 21.26 21.26 18.9 21.26 15.99Z" fill="white"/>
<path d="M24.4903 9.38975C23.4003 9.38975 22.5703 8.53975 22.5703 7.43975C22.5703 6.36975 23.4503 5.48975 24.5103 5.48975C25.5703 5.48975 26.4603 6.37975 26.4703 7.43975C26.4803 8.50975 25.5903 9.38975 24.5003 9.38975H24.4903Z" fill="white"/>
</svg>
