<svg width="32" height="32" viewBox="0 0 32 32" fill="none" xmlns="http://www.w3.org/2000/svg">
<path d="M31.9886 31.9698C31.8786 31.9698 31.7586 31.9898 31.6486 31.9898C29.6886 31.9898 27.7386 31.9898 25.7786 31.9898C25.3486 31.9898 25.3486 31.9898 25.3486 31.5598C25.3486 28.4298 25.3486 25.2998 25.3486 22.1598C25.3486 21.1998 25.3486 20.2498 25.2386 19.2898C25.1586 18.6098 25.0086 17.9598 24.6686 17.3598C24.2986 16.7098 23.7586 16.2698 23.0386 16.0898C22.1186 15.8598 21.1986 15.8798 20.3086 16.2098C19.0586 16.6698 18.4986 17.6698 18.2186 18.8898C18.0486 19.6098 18.0086 20.3498 18.0086 21.0898C18.0086 24.4998 18.0086 27.9198 18.0086 31.3298C18.0086 31.4298 18.0086 31.5398 18.0086 31.6398C18.0286 31.8998 17.9186 31.9798 17.6586 31.9798C16.7986 31.9698 15.9286 31.9798 15.0686 31.9798C13.9586 31.9798 12.8386 31.9798 11.7286 31.9798C11.3086 31.9798 11.3086 31.9798 11.3086 31.5698C11.3086 30.1898 11.3086 28.7998 11.3086 27.4198C11.3086 21.9698 11.3086 16.5198 11.3086 11.0598C11.3086 10.7398 11.4686 10.5798 11.7886 10.5798C13.6086 10.5798 15.4286 10.5798 17.2486 10.5798C17.5619 10.5798 17.7186 10.7431 17.7186 11.0698C17.7186 11.7498 17.7186 12.4198 17.7186 13.0998C17.7186 13.1998 17.6886 13.3098 17.7586 13.3998C17.8286 13.3998 17.8486 13.3498 17.8786 13.3098C18.9686 11.5698 20.5586 10.5698 22.5386 10.1998C24.3486 9.85979 26.1286 10.0298 27.8386 10.7098C29.7186 11.4598 30.8086 12.9198 31.3886 14.7998C31.7286 15.8798 31.8986 16.9798 31.9586 18.1098C31.9586 18.1898 31.9886 18.2698 31.9986 18.3498V31.9598L31.9886 31.9698Z" fill="white"/>
<path d="M4.5083 0C5.6683 0.27 6.58829 0.87 7.20829 1.9C8.57829 4.18 7.0983 7.32 4.4783 7.7C2.3983 8 0.458294 6.65 0.0682937 4.64C-0.341706 2.55 0.898295 0.6 2.9683 0.07C3.0483 0.05 3.12829 0.03 3.20829 0C3.64829 0 4.0783 0 4.5183 0L4.5083 0Z" fill="white"/>
<path d="M7.20827 21.2901C7.20827 24.7001 7.20827 28.1101 7.20827 31.5301C7.20827 31.9901 7.20828 31.9901 6.73828 31.9901C4.78828 31.9901 2.84828 31.9901 0.898277 31.9901C0.588277 31.9901 0.488281 31.9001 0.488281 31.5901C0.488281 24.7201 0.488281 17.8601 0.488281 10.9901C0.488281 10.6701 0.588277 10.5801 0.898277 10.5801C2.85828 10.5901 4.80828 10.5801 6.76828 10.5801C7.19828 10.5801 7.20827 10.5801 7.20827 11.0101C7.20827 14.4301 7.20827 17.8601 7.20827 21.2801V21.2901Z" fill="white"/>
</svg>
