<svg width="180" height="38" viewBox="0 0 180 38" fill="none" xmlns="http://www.w3.org/2000/svg">
<path d="M52.655 7.1543V10.7541H46.7278V29.3959H42.2651V10.7541H36.3379V7.1543H52.655Z" fill="#00D095"/>
<path d="M62.6139 12.2847C63.5372 11.7543 64.5952 11.4878 65.785 11.4878V16.173H64.6062C63.2047 16.173 62.1468 16.5027 61.4351 17.1622C60.7233 17.8217 60.3689 18.9676 60.3689 20.6026V29.3987H55.9062V11.7433H60.3689V14.483C60.9432 13.5487 61.6906 12.815 62.6167 12.2847H62.6139Z" fill="#00D095"/>
<path d="M69.0832 8.89121C68.5611 8.39109 68.3028 7.77006 68.3028 7.02812C68.3028 6.28619 68.5639 5.66241 69.0832 5.16504C69.6026 4.66492 70.2566 4.41486 71.0425 4.41486C71.8284 4.41486 72.4824 4.66492 73.0018 5.16504C73.5211 5.66516 73.7822 6.28619 73.7822 7.02812C73.7822 7.77006 73.5211 8.39384 73.0018 8.89121C72.4797 9.39133 71.8284 9.64139 71.0425 9.64139C70.2566 9.64139 69.6026 9.39133 69.0832 8.89121ZM73.2408 11.7435V29.3989H68.7782V11.7435H73.2408Z" fill="#00D095"/>
<path d="M84.4743 12.2685C85.4828 11.7271 86.6369 11.4551 87.9312 11.4551C89.4398 11.4551 90.8055 11.826 92.0256 12.5707C93.2457 13.3154 94.2129 14.3706 94.9247 15.7418C95.6364 17.113 95.9936 18.7013 95.9936 20.5067C95.9936 22.3121 95.6364 23.9114 94.9247 25.3018C94.2129 26.6923 93.2457 27.7722 92.0256 28.5361C90.8028 29.3 89.4398 29.6848 87.9312 29.6848C86.6342 29.6848 85.4938 29.4182 84.5046 28.8879C83.5181 28.3575 82.7157 27.687 82.0974 26.8791V37.8103H77.6348V11.7436H82.0974V14.2937C82.6717 13.4858 83.4631 12.8125 84.4716 12.2712L84.4743 12.2685ZM90.7835 17.7506C90.3466 16.9756 89.7751 16.3848 89.0633 15.9809C88.3516 15.577 87.5822 15.3764 86.7524 15.3764C85.9225 15.3764 85.186 15.5824 84.4743 15.9974C83.7626 16.4123 83.1883 17.0114 82.7541 17.7973C82.3172 18.5832 82.1001 19.5065 82.1001 20.5699C82.1001 21.6334 82.3172 22.5567 82.7541 23.3426C83.1883 24.1285 83.7626 24.7275 84.4743 25.1424C85.186 25.5574 85.9445 25.7635 86.7524 25.7635C87.5602 25.7635 88.3516 25.5519 89.0633 25.126C89.7751 24.7 90.3494 24.0955 90.7835 23.3096C91.2177 22.5237 91.4375 21.5894 91.4375 20.504C91.4375 19.4185 91.2205 18.5227 90.7835 17.7478V17.7506Z" fill="#00D095"/>
<path d="M103.707 5.81604V29.3987H99.244V5.81604H103.707Z" fill="#00D095"/>
<path d="M124.391 21.908H111.484C111.591 23.183 112.036 24.1805 112.822 24.9032C113.608 25.6259 114.575 25.9859 115.721 25.9859C117.378 25.9859 118.557 25.2742 119.257 23.8507H124.069C123.558 25.5517 122.582 26.9476 121.137 28.0413C119.692 29.135 117.919 29.6818 115.814 29.6818C114.113 29.6818 112.591 29.3054 111.242 28.5497C109.893 27.7968 108.84 26.7278 108.087 25.3484C107.332 23.9689 106.955 22.3751 106.955 20.567C106.955 18.7589 107.326 17.1376 108.071 15.7554C108.815 14.3759 109.854 13.3125 111.195 12.5678C112.533 11.8231 114.075 11.4521 115.817 11.4521C117.559 11.4521 118.999 11.8149 120.326 12.5348C121.654 13.2575 122.684 14.2825 123.418 15.6097C124.152 16.937 124.517 18.4621 124.517 20.1823C124.517 20.8198 124.473 21.3941 124.391 21.9025V21.908ZM119.898 18.9127C119.876 17.7669 119.461 16.8463 118.656 16.1566C117.848 15.4669 116.861 15.1206 115.691 15.1206C114.586 15.1206 113.657 15.4559 112.902 16.1236C112.146 16.7941 111.684 17.7229 111.517 18.9127H119.898Z" fill="#00D095"/>
<path d="M146.792 29.3962H142.33L132.228 14.1315V29.3962H127.766V7.12158H132.228L142.33 22.4192V7.12158H146.792V29.3962Z" fill="#00D095"/>
<path d="M167.471 21.9079H154.564C154.671 23.1829 155.116 24.1804 155.902 24.9031C156.688 25.6258 157.655 25.9858 158.801 25.9858C160.458 25.9858 161.637 25.2741 162.338 23.8507H167.149C166.638 25.5516 165.663 26.9476 164.217 28.0413C162.772 29.1349 160.999 29.6818 158.895 29.6818C157.194 29.6818 155.671 29.3053 154.322 28.5496C152.973 27.7967 151.92 26.7278 151.167 25.3483C150.412 23.9688 150.035 22.3751 150.035 20.5669C150.035 18.7588 150.406 17.1375 151.151 15.7553C151.896 14.3759 152.934 13.3124 154.275 12.5677C155.614 11.8231 157.155 11.4521 158.897 11.4521C160.64 11.4521 162.079 11.8148 163.407 12.5348C164.734 13.2575 165.764 14.2824 166.498 15.6097C167.232 16.9369 167.597 18.462 167.597 20.1822C167.597 20.8197 167.553 21.394 167.471 21.9024V21.9079ZM162.978 18.9127C162.956 17.7668 162.541 16.8462 161.736 16.1565C160.928 15.4668 159.942 15.1206 158.771 15.1206C157.666 15.1206 156.737 15.4558 155.982 16.1235C155.226 16.794 154.764 17.7228 154.597 18.9127H162.978Z" fill="#00D095"/>
<path d="M176.046 15.4067V23.9472C176.046 24.5435 176.189 24.9722 176.478 25.2387C176.763 25.5053 177.247 25.6372 177.928 25.6372H180V29.3963H177.195C173.436 29.3963 171.553 27.5689 171.553 23.9142V15.4067H169.451V11.7409H171.553V7.37451H176.046V11.7409H179.998V15.4067H176.046Z" fill="#00D095"/>
<path d="M30.3782 12.0375C30.3782 11.9138 30.3782 11.7902 30.3727 11.6692C30.3727 11.6198 30.3672 11.5731 30.3645 11.5236C30.359 11.4522 30.3535 11.3807 30.3452 11.3093C30.3397 11.2516 30.3315 11.1939 30.3232 11.1389C30.315 11.0839 30.304 11.029 30.2958 10.974C30.2491 10.724 30.1859 10.4849 30.1034 10.2541C30.0979 10.2376 30.0924 10.2238 30.0869 10.2074C30.0539 10.1222 30.021 10.037 29.9825 9.95454C29.9825 9.9518 29.9825 9.94905 29.9798 9.9463C29.933 9.84463 29.8836 9.7457 29.8286 9.64678C29.7874 9.57258 29.7434 9.50114 29.6995 9.42969C29.6857 9.40771 29.6747 9.38573 29.6583 9.36374C29.6033 9.27856 29.5456 9.19887 29.4824 9.11643C29.4769 9.11093 29.4741 9.10544 29.4686 9.09719C29.0757 8.58059 28.5618 8.12993 27.9243 7.73972C24.6955 5.54964 21.475 3.3513 18.2489 1.15572C16.3199 -0.306171 14.3688 -0.383113 12.4316 0.935886C8.9692 3.30184 5.49858 5.65955 2.03895 8.031C1.1184 8.66028 0.505616 9.45992 0.208842 10.4327C0.208842 10.4409 0.203346 10.4492 0.200598 10.4574C0.175867 10.5371 0.156631 10.6168 0.134648 10.6965C0.129152 10.7157 0.126404 10.7322 0.120908 10.7514C0.104421 10.8256 0.0879333 10.9026 0.0741937 10.9795C0.0686979 11.007 0.06595 11.0317 0.0632021 11.0592C0.0522104 11.1307 0.0412187 11.2021 0.032975 11.2763C0.0219833 11.3725 0.0137396 11.4714 0.00824375 11.5731C0.00824375 11.6088 0.00824375 11.6445 0.00549583 11.6802C0.00274792 11.7434 0 11.8094 0 11.8753C0 16.2033 0 20.5313 0 24.8592C0 24.9279 0.00824375 24.9939 0.0109917 25.0626C0.0137396 25.134 0.0164875 25.2055 0.0219833 25.2742C0.0302271 25.3649 0.0439666 25.45 0.0549583 25.538C0.06595 25.6122 0.0741937 25.6864 0.0879333 25.7578C0.101673 25.8347 0.123656 25.9062 0.140144 25.9804C0.159379 26.0601 0.175867 26.1425 0.200598 26.2222C0.200598 26.2277 0.203346 26.2332 0.206094 26.2359C0.266548 26.4338 0.340741 26.6261 0.428675 26.8103C0.519356 27.0026 0.621029 27.1895 0.736441 27.3653C0.747433 27.3818 0.755677 27.4011 0.769416 27.4175C0.838114 27.522 0.915056 27.6209 0.991997 27.7171C1.00574 27.7336 1.01948 27.7528 1.03322 27.7693C1.11291 27.8655 1.19809 27.9561 1.28328 28.0468C1.29702 28.0606 1.31076 28.077 1.32724 28.0908C1.41792 28.1815 1.51135 28.2667 1.61028 28.3491C1.62402 28.3601 1.63501 28.3711 1.64875 28.3793C1.75042 28.4618 1.85759 28.5414 1.96751 28.6156C1.97575 28.6211 1.98399 28.6266 1.99224 28.6321C2.10765 28.7091 2.22856 28.7805 2.35222 28.8492C2.99523 29.1954 3.73442 29.3933 4.53131 29.3933C8.5048 29.396 12.4783 29.3933 16.4518 29.3933V15.5383C16.4518 14.0132 17.6856 12.7767 19.2107 12.7767H30.37C30.37 12.5321 30.3755 12.2903 30.381 12.0457C30.381 12.0457 30.381 12.0457 30.381 12.043C30.381 12.043 30.381 12.0375 30.381 12.0347L30.3782 12.0375Z" fill="#00D095"/>
<path d="M27.2922 18.6708H20.0927C19.3343 18.6708 18.7188 18.0552 18.7188 17.2968C18.7188 16.5384 19.3343 15.9229 20.0927 15.9229H27.2922C28.0507 15.9229 28.6662 16.5384 28.6662 17.2968C28.6662 18.0552 28.0507 18.6708 27.2922 18.6708Z" fill="#00D095"/>
<path d="M27.2922 23.2875H20.0927C19.3343 23.2875 18.7188 22.6719 18.7188 21.9135C18.7188 21.1551 19.3343 20.5396 20.0927 20.5396H27.2922C28.0507 20.5396 28.6662 21.1551 28.6662 21.9135C28.6662 22.6719 28.0507 23.2875 27.2922 23.2875Z" fill="#00D095"/>
<path d="M27.2922 27.9042H20.0927C19.3343 27.9042 18.7188 27.2886 18.7188 26.5302C18.7188 25.7718 19.3343 25.1562 20.0927 25.1562H27.2922C28.0507 25.1562 28.6662 25.7718 28.6662 26.5302C28.6662 27.2886 28.0507 27.9042 27.2922 27.9042Z" fill="#00D095"/>
</svg>
