<svg width="267" height="56" viewBox="0 0 267 56" fill="none" xmlns="http://www.w3.org/2000/svg">
<path d="M78.3931 10.5963V15.9279H69.6143V43.538H63.0048V15.9279H54.2261V10.5963H78.3931Z" fill="white"/>
<path d="M93.1421 18.1949C94.5096 17.4094 96.0765 17.0146 97.8388 17.0146V23.9538H96.0928C94.0172 23.9538 92.4502 24.4421 91.3961 25.4189C90.342 26.3957 89.817 28.0928 89.817 30.5144V43.5421H83.2075V17.3931H89.817V21.4508C90.6676 20.067 91.7746 18.9803 93.1462 18.1949H93.1421Z" fill="white"/>
<path d="M125.518 18.1702C127.012 17.3684 128.721 16.9655 130.638 16.9655C132.872 16.9655 134.895 17.515 136.702 18.6179C138.509 19.7208 139.942 21.2837 140.996 23.3145C142.05 25.3454 142.579 27.6978 142.579 30.3717C142.579 33.0457 142.05 35.4143 140.996 37.4737C139.942 39.5331 138.509 41.1325 136.702 42.264C134.891 43.3954 132.872 43.9652 130.638 43.9652C128.717 43.9652 127.028 43.5704 125.563 42.7849C124.102 41.9994 122.913 41.0064 121.998 39.8098V55.9999H115.388V17.3929H121.998V21.1697C122.848 19.9732 124.02 18.976 125.514 18.1743L125.518 18.1702ZM134.863 26.2896C134.216 25.1419 133.369 24.2669 132.315 23.6686C131.261 23.0704 130.121 22.7733 128.892 22.7733C127.663 22.7733 126.572 23.0785 125.518 23.693C124.464 24.3076 123.613 25.1948 122.97 26.3588C122.323 27.5228 122.002 28.8903 122.002 30.4653C122.002 32.0404 122.323 33.4079 122.97 34.5719C123.613 35.7359 124.464 36.6231 125.518 37.2377C126.572 37.8522 127.696 38.1574 128.892 38.1574C130.089 38.1574 131.261 37.8441 132.315 37.2132C133.369 36.5824 134.22 35.687 134.863 34.523C135.506 33.359 135.831 31.9753 135.831 30.3677C135.831 28.7601 135.51 27.4333 134.863 26.2856V26.2896Z" fill="white"/>
<path d="M154.004 8.61432V43.5421H147.394V8.61432H154.004Z" fill="white"/>
<path d="M184.637 32.4476H165.521C165.68 34.336 166.339 35.8134 167.503 36.8838C168.667 37.9542 170.1 38.4873 171.797 38.4873C174.251 38.4873 175.997 37.4332 177.035 35.325H184.161C183.404 37.8443 181.959 39.9118 179.819 41.5316C177.678 43.1514 175.053 43.9613 171.935 43.9613C169.416 43.9613 167.161 43.4038 165.163 42.2845C163.165 41.1694 161.606 39.5862 160.491 37.5431C159.372 35.5 158.814 33.1395 158.814 30.4615C158.814 27.7835 159.363 25.3823 160.466 23.3351C161.569 21.292 163.108 19.717 165.094 18.614C167.076 17.5111 169.359 16.9617 171.939 16.9617C174.52 16.9617 176.652 17.4989 178.618 18.5652C180.584 19.6356 182.11 21.1537 183.197 23.1194C184.283 25.0852 184.825 27.344 184.825 29.8917C184.825 30.8359 184.76 31.6865 184.637 32.4395V32.4476ZM177.983 28.0114C177.951 26.3143 177.336 24.9509 176.144 23.9293C174.947 22.9078 173.486 22.395 171.752 22.395C170.116 22.395 168.74 22.8915 167.621 23.8805C166.502 24.8735 165.818 26.2492 165.57 28.0114H177.983Z" fill="white"/>
<path d="M217.815 43.5379H211.206L196.245 20.9297V43.5379H189.635V10.5474H196.245L211.206 33.2045V10.5474H217.815V43.5379Z" fill="white"/>
<path d="M248.446 32.4476H229.329C229.488 34.336 230.147 35.8134 231.311 36.8838C232.475 37.9542 233.908 38.4873 235.605 38.4873C238.059 38.4873 239.805 37.4332 240.843 35.325H247.969C247.212 37.8443 245.768 39.9118 243.627 41.5316C241.486 43.1514 238.861 43.9613 235.743 43.9613C233.224 43.9613 230.969 43.4038 228.971 42.2845C226.973 41.1694 225.414 39.5862 224.299 37.5431C223.18 35.5 222.622 33.1395 222.622 30.4615C222.622 27.7835 223.172 25.3823 224.274 23.3351C225.377 21.292 226.916 19.717 228.902 18.614C230.884 17.5111 233.167 16.9617 235.747 16.9617C238.328 16.9617 240.46 17.4989 242.426 18.5652C244.392 19.6356 245.918 21.1537 247.005 23.1194C248.091 25.0852 248.633 27.344 248.633 29.8917C248.633 30.8359 248.568 31.6865 248.446 32.4395V32.4476ZM241.791 28.0114C241.759 26.3143 241.144 24.9509 239.952 23.9293C238.755 22.9078 237.294 22.395 235.56 22.395C233.924 22.395 232.549 22.8915 231.429 23.8805C230.31 24.8735 229.626 26.2492 229.378 28.0114H241.791Z" fill="white"/>
<path d="M261.144 22.8182V35.4674C261.144 36.3506 261.355 36.9855 261.783 37.3802C262.206 37.775 262.922 37.9704 263.932 37.9704H267V43.538H262.845C257.277 43.538 254.489 40.8315 254.489 35.4186V22.8182H251.376V17.3889H254.489V10.9219H261.144V17.3889H266.996V22.8182H261.144Z" fill="white"/>
<path d="M45.3984 17.8285C45.3984 17.6453 45.3984 17.4622 45.3903 17.2831C45.3903 17.2099 45.3821 17.1407 45.3781 17.0674C45.3699 16.9616 45.3618 16.8558 45.3496 16.75C45.3414 16.6645 45.3292 16.579 45.317 16.4976C45.3048 16.4162 45.2885 16.3348 45.2763 16.2534C45.2071 15.8831 45.1135 15.529 44.9914 15.1871C44.9833 15.1627 44.9751 15.1424 44.967 15.1179C44.9182 14.9918 44.8693 14.8656 44.8124 14.7435C44.8124 14.7394 44.8124 14.7354 44.8083 14.7313C44.7391 14.5807 44.6658 14.4342 44.5844 14.2877C44.5234 14.1778 44.4583 14.072 44.3932 13.9662C44.3728 13.9336 44.3565 13.901 44.3321 13.8685C44.2507 13.7423 44.1652 13.6243 44.0716 13.5022C44.0635 13.4941 44.0594 13.4859 44.0513 13.4737C43.4693 12.7086 42.7082 12.0411 41.764 11.4632C36.9819 8.21947 32.212 4.96356 27.4339 1.71172C24.5769 -0.453465 21.6872 -0.567423 18.818 1.38613C13.6899 4.8903 8.54962 8.38227 3.42562 11.8946C2.06221 12.8266 1.15462 14.0109 0.715073 15.4517C0.715073 15.4639 0.706934 15.4761 0.702864 15.4883C0.666235 15.6063 0.637746 15.7244 0.605186 15.8424C0.597047 15.8709 0.592977 15.8953 0.584837 15.9238C0.560418 16.0337 0.535998 16.1476 0.515649 16.2616C0.507509 16.3023 0.503439 16.3389 0.499369 16.3796C0.48309 16.4854 0.46681 16.5912 0.4546 16.7011C0.438321 16.8436 0.426111 16.9901 0.417971 17.1407C0.417971 17.1936 0.417971 17.2465 0.413902 17.2994C0.409832 17.393 0.405762 17.4907 0.405762 17.5884C0.405762 23.9984 0.405762 30.4085 0.405762 36.8186C0.405762 36.9204 0.417971 37.018 0.422041 37.1198C0.426111 37.2256 0.430181 37.3314 0.438321 37.4332C0.450531 37.5675 0.47088 37.6936 0.48716 37.8239C0.503439 37.9338 0.515649 38.0436 0.535998 38.1495C0.556348 38.2634 0.588907 38.3692 0.613326 38.4791C0.641815 38.5971 0.666235 38.7192 0.702864 38.8373C0.702864 38.8454 0.706934 38.8536 0.711004 38.8576C0.800541 39.1507 0.910428 39.4356 1.04066 39.7082C1.17497 39.9931 1.32556 40.2699 1.49649 40.5303C1.51277 40.5548 1.52498 40.5833 1.54533 40.6077C1.64708 40.7623 1.76104 40.9088 1.87499 41.0513C1.89534 41.0757 1.91569 41.1042 1.93604 41.1286C2.05407 41.2711 2.18023 41.4054 2.3064 41.5397C2.32675 41.56 2.3471 41.5845 2.37152 41.6048C2.50583 41.7391 2.6442 41.8653 2.79072 41.9874C2.81107 42.0037 2.82735 42.0199 2.8477 42.0321C2.99828 42.1542 3.15701 42.2723 3.3198 42.3822C3.33201 42.3903 3.34422 42.3984 3.35643 42.4066C3.52737 42.5205 3.70644 42.6263 3.88959 42.7281C4.84194 43.2409 5.93674 43.5339 7.11701 43.5339C13.0021 43.538 18.8871 43.5339 24.7722 43.5339V23.0135C24.7722 20.7547 26.5996 18.9233 28.8584 18.9233H45.3862C45.3862 18.5611 45.3943 18.2029 45.4025 17.8407C45.4025 17.8407 45.4025 17.8407 45.4025 17.8366C45.4025 17.8366 45.4025 17.8285 45.4025 17.8244L45.3984 17.8285Z" fill="white"/>
<path d="M40.8279 27.6532H30.1648C29.0415 27.6532 28.1299 26.7415 28.1299 25.6183C28.1299 24.495 29.0415 23.5833 30.1648 23.5833H40.8279C41.9512 23.5833 42.8629 24.495 42.8629 25.6183C42.8629 26.7415 41.9512 27.6532 40.8279 27.6532Z" fill="white"/>
<path d="M40.8279 34.4907H30.1648C29.0415 34.4907 28.1299 33.579 28.1299 32.4557C28.1299 31.3324 29.0415 30.4208 30.1648 30.4208H40.8279C41.9512 30.4208 42.8629 31.3324 42.8629 32.4557C42.8629 33.579 41.9512 34.4907 40.8279 34.4907Z" fill="white"/>
<path d="M40.8279 41.3281H30.1648C29.0415 41.3281 28.1299 40.4165 28.1299 39.2932C28.1299 38.1699 29.0415 37.2582 30.1648 37.2582H40.8279C41.9512 37.2582 42.8629 38.1699 42.8629 39.2932C42.8629 40.4165 41.9512 41.3281 40.8279 41.3281Z" fill="white"/>
</svg>
