<svg width="1300" height="893" viewBox="0 0 1300 893" fill="none" xmlns="http://www.w3.org/2000/svg">
<g opacity="0.15">
<mask id="mask0_1_582" style="mask-type:alpha" maskUnits="userSpaceOnUse" x="0" y="0" width="1300" height="893">
<path d="M0 0H1300V893H0V0Z" fill="url(#paint0_linear_1_582)"/>
</mask>
<g mask="url(#mask0_1_582)">
<path d="M1390.15 50.9748C1389.49 51.4343 1388.68 51.5538 1387.95 51.2674L1279.35 12.2441L1278.9 127.627C1278.85 129.171 1277.1 130.396 1275.66 129.897L1167.08 90.8599L1166.62 206.243C1166.6 207.773 1164.83 209.012 1163.38 208.513L1054.81 169.496L1054.34 284.893C1054.32 286.422 1052.55 287.662 1051.1 287.163L942.52 248.125L942.046 363.522C942.021 365.052 940.251 366.292 938.805 365.792L830.225 326.755L829.771 442.138C829.746 443.668 827.976 444.907 826.529 444.408L717.95 405.371L717.476 520.768C717.451 522.298 715.681 523.537 714.235 523.038L605.675 483.987L605.221 599.37L600.33 599.327L600.827 480.534C600.811 478.945 602.581 477.706 604.069 478.264L712.607 517.242L713.102 401.919C713.086 400.329 714.856 399.09 716.344 399.648L824.902 438.612L825.397 323.289C825.381 321.699 827.151 320.46 828.639 321.019L937.196 359.982L937.692 244.659C937.675 243.07 939.446 241.83 940.934 242.389L1049.47 281.367L1049.97 166.043C1049.97 164.44 1051.72 163.214 1053.21 163.773L1161.75 202.751L1162.24 87.4273C1162.27 85.8102 1164 84.5985 1165.5 85.1433L1274 124.149L1274.54 8.79759C1274.52 7.20828 1276.29 5.96878 1277.78 6.52751L1386.32 45.5052L1386.81 -69.8183C1386.8 -71.4076 1388.57 -72.6471 1390.05 -72.0883L1501.85 -31.9255L1500.22 -27.3146L1391.66 -66.3658L1391.19 49.0312C1391.2 49.8189 1390.82 50.5351 1390.16 50.9946L1390.15 50.9748Z" fill="#00D095"/>
<path d="M1910.84 675.107C1910.19 675.566 1909.84 676.342 1909.84 677.144L1909.34 792.467L1800.81 753.489C1799.32 752.931 1797.55 754.17 1797.56 755.76L1797.03 871.111L1688.53 832.105C1687 831.574 1685.27 832.786 1685.27 834.389L1684.77 949.713L1576.24 910.735C1574.75 910.176 1572.98 911.416 1572.99 913.005L1572.5 1028.33L1463.96 989.351C1462.45 988.806 1460.7 990.032 1460.72 991.621L1460.22 1106.94L1351.67 1067.98C1350.18 1067.42 1348.41 1068.66 1348.42 1070.25L1347.93 1185.57L1239.37 1146.61C1237.88 1146.05 1236.11 1147.29 1236.13 1148.88L1235.63 1264.2L1127.1 1225.23C1125.61 1224.67 1123.84 1225.91 1123.85 1227.5L1123.34 1346.27L1128.24 1346.31L1128.69 1230.93L1237.27 1269.97C1238.71 1270.47 1240.48 1269.23 1240.51 1267.7L1240.98 1152.3L1349.56 1191.34C1351.01 1191.84 1352.78 1190.6 1352.81 1189.07L1353.26 1073.68L1461.84 1112.72C1463.28 1113.22 1465.05 1111.98 1465.08 1110.45L1465.55 995.054L1574.13 1034.09C1575.58 1034.59 1577.35 1033.35 1577.38 1031.82L1577.85 916.424L1686.43 955.461C1687.87 955.96 1689.64 954.721 1689.67 953.191L1690.12 837.808L1798.7 876.845C1800.15 877.344 1801.92 876.105 1801.95 874.575L1802.4 759.192L1911 798.215C1912.42 798.728 1914.21 797.475 1914.22 795.959L1914.69 680.562L2023.25 719.614L2024.89 715.003L1913.09 674.84C1912.35 674.554 1911.49 674.627 1910.85 675.073L1910.84 675.107Z" fill="#00D095"/>
<path d="M1539.55 264.347C1538.89 264.806 1538.09 264.926 1537.35 264.64L1428.8 225.676L1428.3 340.999C1428.3 342.603 1426.55 343.828 1425.06 343.269L1316.52 304.292L1316.03 419.615C1316.04 421.204 1314.27 422.444 1312.78 421.885L1204.25 382.908L1203.73 498.245C1203.75 499.834 1201.98 501.074 1200.49 500.515L1091.95 461.537L1091.44 576.875C1091.45 578.464 1089.68 579.703 1088.2 579.145L979.657 540.167L979.162 655.49C979.178 657.08 977.408 658.319 975.92 657.761L867.382 618.783L866.867 734.12C866.883 735.71 865.113 736.949 863.625 736.39L755.087 697.413L754.612 812.722L749.762 812.739L750.217 693.887C750.243 692.357 752.013 691.117 753.459 691.617L862.039 730.654L862.492 615.271C862.518 613.741 864.288 612.502 865.734 613.001L974.334 652.024L974.787 536.641C974.813 535.111 976.583 533.872 978.029 534.371L1086.63 573.394L1087.08 458.011C1087.11 456.482 1088.88 455.242 1090.32 455.741L1198.9 494.779L1199.36 379.395C1199.4 377.852 1201.15 376.626 1202.6 377.125L1311.18 416.163L1311.63 300.78C1311.7 299.222 1313.43 298.01 1314.89 298.496L1423.43 337.561L1423.93 222.15C1423.95 220.62 1425.72 219.381 1427.17 219.88L1535.75 258.917L1536.2 143.534C1536.23 142.004 1538 140.765 1539.44 141.264L1651.28 181.486L1649.61 186.038L1541.09 147.046L1540.58 262.383C1540.59 263.171 1540.21 263.887 1539.55 264.347Z" fill="#00D095"/>
<path d="M1761.43 461.714C1760.77 462.174 1760.38 462.89 1760.38 463.692L1759.93 579.075L1651.35 540.038C1649.86 539.479 1648.09 540.718 1648.1 542.308L1647.61 657.719L1539.07 618.653C1537.54 618.123 1535.81 619.334 1535.81 620.937L1535.36 736.32L1426.78 697.283C1425.29 696.724 1423.52 697.964 1423.53 699.553L1423.08 814.936L1314.5 775.899C1312.99 775.354 1311.24 776.58 1311.26 778.169L1310.81 893.552L1202.21 854.529C1200.72 853.97 1198.95 855.21 1198.96 856.799L1198.51 972.182L1089.91 933.159C1088.42 932.6 1086.65 933.839 1086.67 935.429L1086.22 1050.81L977.636 1011.77C976.149 1011.22 974.378 1012.46 974.395 1014.04L973.898 1132.84L978.789 1132.88L979.242 1017.5L1087.82 1056.53C1089.31 1057.09 1091.08 1055.85 1091.06 1054.26L1091.54 938.867L1200.12 977.904C1201.61 978.463 1203.38 977.224 1203.36 975.634L1203.81 860.251L1312.39 899.289C1313.88 899.847 1315.65 898.608 1315.63 897.019L1316.11 781.622L1424.69 820.659C1426.18 821.218 1427.95 819.978 1427.93 818.389L1428.4 702.992L1536.98 742.029C1538.47 742.588 1540.24 741.348 1540.22 739.759L1540.68 624.376L1649.26 663.413C1650.74 663.972 1652.52 662.733 1652.5 661.143L1652.95 545.76L1761.55 584.783C1763.02 585.356 1764.81 584.103 1764.77 582.527L1765.25 467.13L1873.81 506.182L1875.44 501.571L1763.64 461.408C1762.91 461.122 1762.08 461.255 1761.45 461.701L1761.43 461.714Z" fill="#00D095"/>
<path d="M1688.98 477.759C1688.33 478.218 1687.52 478.338 1686.79 478.052L1578.19 439.028L1577.74 554.411C1577.73 556.015 1575.98 557.24 1574.49 556.681L1465.91 517.644L1465.46 633.027C1465.48 634.617 1463.71 635.856 1462.22 635.297L1353.64 596.26L1353.17 711.657C1353.18 713.246 1351.41 714.486 1349.92 713.927L1241.34 674.89L1240.87 790.287C1240.89 791.876 1239.12 793.115 1237.63 792.557L1129.05 753.519L1128.6 868.903C1128.61 870.492 1126.84 871.731 1125.35 871.173L1016.77 832.135L1016.3 947.532C1016.32 949.122 1014.55 950.361 1013.06 949.802L904.479 910.765L904.045 1026.13L899.154 1026.09L899.665 907.319C899.648 905.729 901.419 904.49 902.907 905.049L1011.49 944.086L1011.94 828.703C1011.92 827.113 1013.69 825.874 1015.18 826.433L1123.78 865.456L1124.23 750.073C1124.22 748.484 1125.99 747.244 1127.48 747.803L1236.08 786.826L1236.53 671.443C1236.51 669.854 1238.28 668.614 1239.77 669.173L1348.35 708.21L1348.8 592.827C1348.81 591.224 1350.56 589.999 1352.05 590.557L1460.63 629.595L1461.08 514.212C1461.1 512.594 1462.83 511.383 1464.34 511.928L1572.88 550.993L1573.37 435.582C1573.36 433.992 1575.13 432.753 1576.62 433.312L1685.2 472.349L1685.65 356.966C1685.63 355.377 1687.4 354.137 1688.89 354.696L1800.68 394.839L1799.04 399.45L1690.48 360.398L1690.01 475.796C1690.03 476.583 1689.64 477.299 1688.98 477.759Z" fill="#00D095"/>
<path d="M1612.01 248.322C1611.35 248.782 1610.96 249.498 1610.96 250.3L1610.51 365.683L1501.93 326.645C1500.48 326.146 1498.71 327.386 1498.69 328.915L1498.19 444.326L1389.65 405.261C1388.17 404.79 1386.44 406.002 1386.39 407.545L1385.94 522.928L1277.36 483.891C1275.91 483.392 1274.14 484.631 1274.12 486.161L1273.66 601.544L1165.08 562.507C1163.62 562.022 1161.87 563.247 1161.84 564.777L1161.39 680.16L1052.79 641.136C1051.34 640.637 1049.57 641.877 1049.55 643.407L1049.09 758.79L940.494 719.766C939.047 719.267 937.277 720.507 937.252 722.036L936.798 837.419L828.218 798.382C826.772 797.883 825.002 799.122 824.977 800.652L824.522 919.504L829.371 919.488L829.866 804.164L938.404 843.142C939.892 843.701 941.662 842.461 941.646 840.872L942.161 725.534L1050.7 764.512C1052.19 765.071 1053.96 763.831 1053.94 762.242L1054.44 646.919L1162.97 685.896C1164.46 686.455 1166.23 685.216 1166.22 683.626L1166.73 568.289L1275.27 607.267C1276.76 607.825 1278.53 606.586 1278.51 604.997L1279.03 489.659L1387.56 528.637C1389.05 529.196 1390.82 527.956 1390.81 526.367L1391.3 411.043L1499.84 450.021C1501.33 450.58 1503.1 449.34 1503.08 447.751L1503.58 332.427L1612.13 371.391C1613.6 371.964 1615.39 370.71 1615.36 369.135L1615.87 253.798L1724.39 292.789L1726.06 288.238L1614.22 248.016C1613.49 247.729 1612.66 247.863 1612.03 248.308L1612.01 248.322Z" fill="#00D095"/>
<path d="M1838.4 691.151C1837.75 691.611 1836.9 691.671 1836.21 691.444L1727.61 652.421L1727.15 767.804C1727.11 769.347 1725.36 770.573 1723.91 770.074L1615.33 731.036L1614.88 846.42C1614.85 847.949 1613.08 849.189 1611.64 848.69L1503.06 809.652L1502.58 925.049C1502.56 926.579 1500.79 927.818 1499.34 927.319L1390.76 888.282L1390.29 1003.68C1390.26 1005.21 1388.49 1006.45 1387.05 1005.95L1278.47 966.912L1278.01 1082.29C1277.99 1083.82 1276.22 1085.06 1274.77 1084.56L1166.19 1045.53L1165.72 1160.92C1165.69 1162.45 1163.92 1163.69 1162.48 1163.19L1053.9 1124.16L1053.46 1239.53L1048.57 1239.48L1049.08 1120.71C1049.07 1119.12 1050.84 1117.88 1052.32 1118.44L1160.86 1157.42L1161.36 1042.1C1161.34 1040.51 1163.11 1039.27 1164.6 1039.82L1273.16 1078.79L1273.65 963.465C1273.64 961.876 1275.41 960.636 1276.89 961.195L1385.45 1000.16L1385.95 884.835C1385.93 883.246 1387.7 882.007 1389.19 882.565L1497.73 921.543L1498.22 806.22C1498.23 804.616 1499.98 803.391 1501.46 803.95L1610 842.927L1610.5 727.604C1610.52 725.987 1612.25 724.775 1613.76 725.32L1722.26 764.325L1722.79 648.974C1722.78 647.385 1724.55 646.145 1726.03 646.704L1834.57 685.682L1835.07 570.358C1835.05 568.769 1836.82 567.529 1838.31 568.088L1950.09 608.231L1948.46 612.842L1839.9 573.791L1839.43 689.188C1839.4 689.916 1839.06 690.692 1838.4 691.151Z" fill="#00D095"/>
<path d="M1462.62 34.9697C1461.96 35.4293 1461.57 36.1455 1461.57 36.9471L1461.07 152.271L1352.54 113.293C1351.05 112.734 1349.28 113.974 1349.29 115.563L1348.76 230.914L1240.26 191.909C1238.73 191.378 1237 192.589 1237 194.193L1236.5 309.516L1127.97 270.538C1126.48 269.98 1124.71 271.219 1124.72 272.808L1124.23 388.132L1015.69 349.154C1014.18 348.609 1012.43 349.835 1012.45 351.424L1011.95 466.748L903.396 427.784C901.908 427.225 900.138 428.465 900.154 430.054L899.659 545.378L791.101 506.414C789.613 505.855 787.843 507.095 787.859 508.684L787.364 624.007L678.826 585.03C677.338 584.471 675.568 585.71 675.584 587.3L675.074 706.072L679.965 706.115L680.418 590.732L788.998 629.77C790.444 630.269 792.214 629.029 792.24 627.499L792.713 512.102L901.293 551.14C902.739 551.639 904.509 550.399 904.535 548.87L904.988 433.487L1013.57 472.524C1015.01 473.023 1016.78 471.784 1016.81 470.254L1017.28 354.857L1125.86 393.894C1127.31 394.393 1129.08 393.154 1129.1 391.624L1129.58 276.227L1238.16 315.264C1239.6 315.764 1241.37 314.524 1241.4 312.994L1241.85 197.611L1350.43 236.649C1351.88 237.148 1353.65 235.908 1353.67 234.379L1354.13 118.995L1462.73 158.019C1464.15 158.532 1465.94 157.278 1465.95 155.763L1466.42 40.3657L1574.98 79.4169L1576.62 74.8059L1464.82 34.6432C1464.08 34.3569 1463.26 34.4903 1462.62 34.9359L1462.62 34.9697Z" fill="#00D095"/>
<path d="M492.031 678.197C491.375 678.657 490.569 678.776 489.835 678.49L381.236 639.467L380.782 754.85C380.737 756.393 378.986 757.619 377.54 757.12L268.961 718.082L268.507 833.466C268.482 834.995 266.711 836.235 265.265 835.736L156.699 796.718L156.226 912.115C156.201 913.645 154.43 914.884 152.984 914.385L44.4045 875.348L43.9313 990.745C43.9056 992.275 42.1355 993.514 40.6893 993.015L-67.8904 953.978L-68.3438 1069.36C-68.3694 1070.89 -70.1396 1072.13 -71.5858 1071.63L-180.165 1032.59L-180.639 1147.99C-180.664 1149.52 -182.435 1150.76 -183.881 1150.26L-292.441 1111.21L-292.894 1226.59L-297.785 1226.55L-297.289 1107.76C-297.305 1106.17 -295.534 1104.93 -294.047 1105.49L-185.509 1144.46L-185.013 1029.14C-185.03 1027.55 -183.259 1026.31 -181.772 1026.87L-73.2137 1065.83L-72.7185 950.511C-72.7347 948.922 -70.9645 947.683 -69.4766 948.241L39.0813 987.205L39.5764 871.882C39.5603 870.292 41.3304 869.053 42.8184 869.612L151.356 908.589L151.851 793.266C151.855 791.663 153.605 790.437 155.093 790.996L263.631 829.973L264.127 714.65C264.15 713.033 265.881 711.821 267.388 712.366L375.887 751.371L376.421 636.02C376.405 634.431 378.175 633.191 379.663 633.75L488.201 672.728L488.697 557.404C488.68 555.815 490.451 554.575 491.938 555.134L603.737 595.297L602.104 599.908L493.544 560.857L493.071 676.254C493.089 677.042 492.701 677.758 492.045 678.217L492.031 678.197Z" fill="#00D095"/>
<path d="M641.436 891.569C640.779 892.029 639.974 892.148 639.24 891.862L530.682 852.898L530.187 968.222C530.183 969.825 528.433 971.051 526.945 970.492L418.407 931.514L417.912 1046.84C417.928 1048.43 416.158 1049.67 414.67 1049.11L306.132 1010.13L305.617 1125.47C305.633 1127.06 303.863 1128.3 302.375 1127.74L193.837 1088.76L193.322 1204.1C193.338 1205.69 191.568 1206.93 190.08 1206.37L81.5419 1167.39L81.0468 1282.71C81.0629 1284.3 79.2927 1285.54 77.8048 1284.98L-30.7332 1246.01L-31.2482 1361.34C-31.232 1362.93 -33.0022 1364.17 -34.4901 1363.61L-143.028 1324.64L-143.503 1439.94L-148.353 1439.96L-147.898 1321.11C-147.872 1319.58 -146.102 1318.34 -144.656 1318.84L-36.0763 1357.88L-35.6229 1242.49C-35.5973 1240.96 -33.8271 1239.72 -32.381 1240.22L76.2187 1279.25L76.672 1163.86C76.6977 1162.33 78.4678 1161.09 79.914 1161.59L188.514 1200.62L188.967 1085.23C188.993 1083.7 190.763 1082.46 192.209 1082.96L300.789 1122L301.242 1006.62C301.288 1005.07 303.038 1003.85 304.484 1004.35L413.064 1043.39L413.517 928.002C413.582 926.445 415.313 925.233 416.779 925.718L525.319 964.783L525.812 849.372C525.838 847.843 527.608 846.603 529.054 847.102L637.634 886.14L638.087 770.756C638.113 769.227 639.883 767.987 641.329 768.486L753.169 808.709L751.495 813.26L642.977 774.269L642.462 889.606C642.48 890.394 642.092 891.11 641.436 891.569Z" fill="#00D095"/>
<path d="M713.892 875.545C713.236 876.004 712.848 876.72 712.846 877.522L712.393 992.905L603.813 953.868C602.367 953.369 600.597 954.608 600.571 956.138L600.078 1071.55L491.538 1032.48C490.052 1032.01 488.322 1033.22 488.276 1034.77L487.823 1150.15L379.243 1111.11C377.797 1110.61 376.027 1111.85 376.001 1113.38L375.548 1228.77L266.968 1189.73C265.502 1189.24 263.752 1190.47 263.726 1192L263.273 1307.38L154.673 1268.36C153.227 1267.86 151.457 1269.1 151.431 1270.63L150.978 1386.01L42.3783 1346.99C40.9322 1346.49 39.162 1347.73 39.1364 1349.26L38.683 1464.64L-69.8967 1425.6C-71.3429 1425.11 -73.113 1426.35 -73.1387 1427.87L-73.5935 1546.73L-68.7441 1546.71L-68.2489 1431.39L40.289 1470.36C41.777 1470.92 43.5471 1469.68 43.531 1468.09L44.046 1352.76L152.584 1391.73C154.072 1392.29 155.842 1391.05 155.826 1389.46L156.321 1274.14L264.859 1313.12C266.347 1313.68 268.117 1312.44 268.101 1310.85L268.616 1195.51L377.154 1234.49C378.642 1235.05 380.412 1233.81 380.396 1232.22L380.911 1116.88L489.449 1155.86C490.937 1156.42 492.707 1155.18 492.691 1153.59L493.186 1038.27L601.724 1077.24C603.212 1077.8 604.982 1076.56 604.966 1074.97L605.461 959.65L714.019 998.614C715.487 999.186 717.277 997.933 717.241 996.358L717.756 881.02L826.274 920.012L827.948 915.46L716.108 875.238C715.374 874.952 714.549 875.085 713.912 875.531L713.892 875.545Z" fill="#00D095"/>
<path d="M564.5 662.192C563.844 662.652 563.456 663.368 563.454 664.17L562.959 779.493L454.421 740.515C452.933 739.957 451.163 741.196 451.179 742.786L450.644 858.137L342.146 819.131C340.618 818.6 338.888 819.812 338.884 821.415L338.389 936.739L229.851 897.761C228.363 897.202 226.593 898.442 226.609 900.031L226.114 1015.35L117.576 976.377C116.068 975.832 114.318 977.058 114.334 978.647L113.839 1093.97L5.28088 1055.01C3.79294 1054.45 2.02279 1055.69 2.03892 1057.28L1.54379 1172.6L-107.014 1133.64C-108.502 1133.08 -110.272 1134.32 -110.256 1135.91L-110.751 1251.23L-219.289 1212.25C-220.777 1211.69 -222.547 1212.93 -222.531 1214.52L-223.042 1333.29L-218.15 1333.34L-217.697 1217.95L-109.117 1256.99C-107.671 1257.49 -105.901 1256.25 -105.875 1254.72L-105.402 1139.33L3.17766 1178.36C4.62382 1178.86 6.39397 1177.62 6.41962 1176.09L6.87298 1060.71L115.453 1099.75C116.899 1100.25 118.669 1099.01 118.695 1097.48L119.168 982.079L227.748 1021.12C229.194 1021.62 230.964 1020.38 230.99 1018.85L231.463 903.45L340.043 942.487C341.489 942.986 343.259 941.747 343.285 940.217L343.738 824.834L452.318 863.871C453.764 864.37 455.534 863.131 455.56 861.601L456.013 746.218L564.613 785.241C566.039 785.754 567.829 784.501 567.835 782.985L568.308 667.588L676.868 706.639L678.5 702.028L566.702 661.866C565.968 661.579 565.142 661.713 564.506 662.158L564.5 662.192Z" fill="#00D095"/>
</g>
</g>
<defs>
<linearGradient id="paint0_linear_1_582" x1="622.766" y1="16.1417" x2="1184.17" y2="517.217" gradientUnits="userSpaceOnUse">
<stop stop-color="#E1F4F5"/>
<stop offset="0.470989" stop-color="#E1F4F5"/>
<stop offset="0.850411" stop-color="#D6EBF0"/>
</linearGradient>
</defs>
</svg>
