<svg width="1300" height="893" viewBox="0 0 1300 893" fill="none" xmlns="http://www.w3.org/2000/svg">
<g opacity="0.15">
<mask id="mask0_6_1479" style="mask-type:alpha" maskUnits="userSpaceOnUse" x="0" y="0" width="1300" height="893">
<path d="M0 0H1300V893H0V0Z" fill="url(#paint0_linear_6_1479)"/>
</mask>
<g mask="url(#mask0_6_1479)">
<path d="M1390.15 -6.66436C1389.49 -6.28409 1388.68 -6.18525 1387.95 -6.42216L1279.35 -38.7107L1278.9 56.759C1278.85 58.0362 1277.1 59.0502 1275.66 58.6372L1167.08 26.3372L1166.62 121.807C1166.6 123.073 1164.83 124.098 1163.38 123.685L1054.81 91.4016L1054.34 186.883C1054.32 188.148 1052.55 189.174 1051.1 188.761L942.52 156.461L942.046 251.942C942.021 253.208 940.251 254.233 938.805 253.82L830.225 221.52L829.771 316.99C829.746 318.256 827.976 319.281 826.529 318.868L717.95 286.568L717.477 382.05C717.451 383.315 715.681 384.341 714.235 383.928L605.675 351.616L605.221 447.086L600.33 447.05L600.827 348.76C600.811 347.445 602.581 346.419 604.069 346.881L712.607 379.132L713.102 283.712C713.086 282.397 714.856 281.371 716.344 281.833L824.902 314.073L825.397 218.652C825.381 217.337 827.151 216.312 828.639 216.774L937.197 249.013L937.692 153.593C937.676 152.278 939.446 151.252 940.934 151.715L1049.47 183.965L1049.97 88.5449C1049.97 87.2184 1051.72 86.2044 1053.21 86.6667L1161.75 118.917L1162.24 23.497C1162.27 22.159 1164 21.1564 1165.5 21.6072L1274 53.881L1274.54 -41.5624C1274.52 -42.8774 1276.29 -43.903 1277.78 -43.4406L1386.32 -11.1899L1386.81 -106.61C1386.8 -107.925 1388.57 -108.951 1390.05 -108.489L1501.85 -75.2573L1500.22 -71.4421L1391.66 -103.754L1391.19 -8.27245C1391.2 -7.6207 1390.82 -7.02816 1390.16 -6.6479L1390.15 -6.66436Z" fill="#00D095"/>
<path d="M1910.84 509.751C1910.19 510.132 1909.84 510.774 1909.84 511.437L1909.34 606.857L1800.81 574.606C1799.32 574.144 1797.55 575.17 1797.56 576.485L1797.03 671.928L1688.53 639.654C1687 639.215 1685.27 640.218 1685.27 641.544L1684.77 736.965L1576.24 704.714C1574.75 704.252 1572.98 705.277 1572.99 706.592L1572.5 802.012L1463.96 769.762C1462.45 769.311 1460.7 770.325 1460.72 771.64L1460.22 867.06L1351.67 834.821C1350.18 834.359 1348.41 835.384 1348.42 836.699L1347.93 932.12L1239.37 899.881C1237.88 899.418 1236.11 900.444 1236.13 901.759L1235.63 997.179L1127.1 964.928C1125.61 964.466 1123.84 965.492 1123.85 966.807L1123.34 1065.08L1128.24 1065.12L1128.69 969.647L1237.27 1001.95C1238.71 1002.36 1240.48 1001.33 1240.51 1000.07L1240.98 904.587L1349.56 936.887C1351.01 937.3 1352.78 936.275 1352.81 935.009L1353.26 839.54L1461.84 871.84C1463.28 872.253 1465.05 871.227 1465.08 869.961L1465.55 774.48L1574.13 806.78C1575.58 807.193 1577.35 806.168 1577.38 804.902L1577.85 709.421L1686.43 741.721C1687.87 742.134 1689.64 741.108 1689.67 739.842L1690.12 644.373L1798.7 676.673C1800.15 677.086 1801.92 676.06 1801.95 674.795L1802.4 579.325L1911 611.613C1912.42 612.038 1914.21 611.001 1914.22 609.747L1914.69 514.266L2023.25 546.577L2024.89 542.762L1913.09 509.531C1912.35 509.294 1911.49 509.355 1910.85 509.723L1910.84 509.751Z" fill="#00D095"/>
<path d="M1539.55 169.883C1538.89 170.263 1538.09 170.362 1537.35 170.125L1428.8 137.886L1428.3 233.306C1428.3 234.633 1426.55 235.647 1425.06 235.185L1316.52 202.934L1316.03 298.354C1316.04 299.669 1314.27 300.695 1312.78 300.233L1204.25 267.982L1203.73 363.414C1203.75 364.729 1201.98 365.754 1200.49 365.292L1091.95 333.041L1091.44 428.473C1091.45 429.788 1089.68 430.814 1088.2 430.351L979.657 398.101L979.162 493.521C979.178 494.836 977.408 495.862 975.92 495.399L867.382 463.149L866.867 558.58C866.883 559.895 865.113 560.921 863.625 560.459L755.087 528.208L754.612 623.617L749.762 623.631L750.217 525.291C750.243 524.025 752.013 522.999 753.459 523.412L862.039 555.712L862.492 460.243C862.518 458.977 864.288 457.951 865.734 458.364L974.334 490.653L974.787 395.183C974.813 393.918 976.583 392.892 978.029 393.305L1086.63 425.594L1087.08 330.124C1087.11 328.858 1088.88 327.833 1090.32 328.246L1198.9 360.546L1199.36 265.076C1199.4 263.799 1201.15 262.785 1202.6 263.198L1311.18 295.498L1311.63 200.028C1311.7 198.739 1313.43 197.737 1314.89 198.138L1423.43 230.461L1423.93 134.969C1423.95 133.703 1425.72 132.677 1427.17 133.09L1535.75 165.39L1536.2 69.9207C1536.23 68.655 1538 67.6295 1539.44 68.0424L1651.28 101.323L1649.61 105.089L1541.09 72.8267L1540.58 168.259C1540.59 168.91 1540.21 169.503 1539.55 169.883Z" fill="#00D095"/>
<path d="M1761.43 333.188C1760.77 333.568 1760.38 334.16 1760.38 334.824L1759.93 430.293L1651.35 397.993C1649.86 397.531 1648.09 398.557 1648.1 399.872L1647.61 495.364L1539.07 463.041C1537.54 462.602 1535.81 463.604 1535.81 464.931L1535.36 560.401L1426.78 528.101C1425.29 527.638 1423.52 528.664 1423.53 529.979L1423.08 625.449L1314.5 593.148C1312.99 592.698 1311.24 593.712 1311.26 595.027L1310.81 690.496L1202.21 658.208C1200.72 657.746 1198.95 658.771 1198.96 660.086L1198.51 755.556L1089.91 723.267C1088.42 722.805 1086.65 723.831 1086.67 725.146L1086.22 820.615L977.636 788.315C976.149 787.853 974.378 788.878 974.395 790.193L973.898 888.484L978.789 888.52L979.242 793.05L1087.82 825.35C1089.31 825.812 1091.08 824.787 1091.06 823.472L1091.54 727.991L1200.12 760.291C1201.61 760.753 1203.38 759.727 1203.36 758.412L1203.81 662.943L1312.39 695.243C1313.88 695.705 1315.65 694.68 1315.63 693.365L1316.11 597.883L1424.69 630.183C1426.17 630.646 1427.95 629.62 1427.93 628.305L1428.4 532.824L1536.98 565.124C1538.47 565.586 1540.24 564.561 1540.22 563.246L1540.68 467.776L1649.26 500.076C1650.74 500.538 1652.52 499.513 1652.5 498.198L1652.95 402.728L1761.55 435.017C1763.02 435.49 1764.81 434.453 1764.77 433.15L1765.25 337.669L1873.81 369.98L1875.44 366.165L1763.64 332.934C1762.91 332.697 1762.08 332.807 1761.45 333.176L1761.43 333.188Z" fill="#00D095"/>
<path d="M1688.98 346.463C1688.33 346.843 1687.52 346.942 1686.79 346.705L1578.19 314.417L1577.74 409.887C1577.73 411.213 1575.98 412.227 1574.49 411.765L1465.91 379.465L1465.46 474.934C1465.48 476.249 1463.71 477.275 1462.22 476.813L1353.64 444.513L1353.17 539.994C1353.18 541.309 1351.41 542.334 1349.92 541.872L1241.34 509.572L1240.87 605.053C1240.89 606.368 1239.12 607.394 1237.63 606.932L1129.05 574.631L1128.6 670.101C1128.61 671.416 1126.84 672.442 1125.35 671.979L1016.77 639.679L1016.3 735.161C1016.32 736.476 1014.55 737.501 1013.06 737.039L904.479 704.739L904.045 800.197L899.154 800.161L899.665 701.887C899.648 700.572 901.419 699.547 902.907 700.009L1011.49 732.309L1011.94 636.839C1011.92 635.524 1013.69 634.499 1015.18 634.961L1123.78 667.25L1124.23 571.78C1124.22 570.465 1125.99 569.439 1127.48 569.902L1236.08 602.19L1236.53 506.72C1236.51 505.405 1238.28 504.38 1239.77 504.842L1348.35 537.142L1348.8 441.672C1348.81 440.346 1350.56 439.332 1352.05 439.794L1460.63 472.094L1461.08 376.625C1461.1 375.287 1462.83 374.284 1464.34 374.735L1572.88 407.058L1573.37 311.565C1573.36 310.25 1575.13 309.225 1576.62 309.687L1685.2 341.987L1685.65 246.517C1685.63 245.202 1687.4 244.177 1688.89 244.639L1800.68 277.854L1799.04 281.669L1690.48 249.357L1690.01 344.839C1690.03 345.49 1689.64 346.083 1688.98 346.463Z" fill="#00D095"/>
<path d="M1612.01 156.624C1611.35 157.004 1610.96 157.597 1610.96 158.26L1610.51 253.73L1501.93 221.43C1500.48 221.017 1498.71 222.042 1498.69 223.308L1498.19 318.801L1389.65 286.477C1388.17 286.088 1386.44 287.09 1386.39 288.367L1385.94 383.837L1277.36 351.537C1275.91 351.124 1274.14 352.149 1274.12 353.415L1273.66 448.885L1165.08 416.585C1163.62 416.183 1161.87 417.197 1161.84 418.463L1161.39 513.933L1052.79 481.644C1051.34 481.231 1049.57 482.257 1049.55 483.522L1049.09 578.992L940.494 546.704C939.047 546.291 937.277 547.316 937.252 548.582L936.798 644.052L828.218 611.751C826.772 611.339 825.002 612.364 824.977 613.63L824.522 711.97L829.371 711.956L829.866 616.536L938.404 648.786C939.892 649.249 941.662 648.223 941.646 646.908L942.161 551.476L1050.7 583.727C1052.19 584.189 1053.96 583.164 1053.94 581.849L1054.44 486.428L1162.97 518.679C1164.46 519.141 1166.23 518.116 1166.22 516.801L1166.73 421.369L1275.27 453.62C1276.76 454.082 1278.53 453.056 1278.51 451.741L1279.03 356.31L1387.56 388.56C1389.05 389.023 1390.82 387.997 1390.81 386.682L1391.3 291.262L1499.84 323.512C1501.33 323.975 1503.1 322.949 1503.08 321.634L1503.58 226.214L1612.13 258.453C1613.6 258.927 1615.39 257.89 1615.36 256.586L1615.87 161.154L1724.39 193.417L1726.06 189.651L1614.22 156.37C1613.49 156.133 1612.66 156.244 1612.03 156.612L1612.01 156.624Z" fill="#00D095"/>
<path d="M1838.4 523.027C1837.75 523.407 1836.9 523.457 1836.21 523.269L1727.61 490.981L1727.15 586.45C1727.11 587.727 1725.36 588.742 1723.91 588.329L1615.33 556.028L1614.88 651.498C1614.85 652.764 1613.08 653.789 1611.64 653.376L1503.06 621.076L1502.58 716.558C1502.56 717.823 1500.79 718.849 1499.34 718.436L1390.76 686.136L1390.29 781.617C1390.26 782.883 1388.49 783.908 1387.05 783.495L1278.47 751.195L1278.01 846.665C1277.99 847.931 1276.22 848.956 1274.77 848.543L1166.19 816.243L1165.72 911.724C1165.69 912.99 1163.92 914.016 1162.48 913.603L1053.9 881.303L1053.46 976.761L1048.57 976.725L1049.08 878.451C1049.07 877.136 1050.84 876.11 1052.32 876.573L1160.86 908.823L1161.36 813.403C1161.34 812.088 1163.11 811.062 1164.6 811.525L1273.16 843.764L1273.65 748.344C1273.64 747.029 1275.41 746.003 1276.89 746.465L1385.45 778.704L1385.95 683.284C1385.93 681.969 1387.7 680.944 1389.19 681.406L1497.73 713.657L1498.22 618.236C1498.23 616.91 1499.98 615.896 1501.46 616.358L1610 648.609L1610.5 553.188C1610.52 551.85 1612.25 550.848 1613.76 551.299L1722.26 583.572L1722.79 488.129C1722.78 486.814 1724.55 485.788 1726.03 486.251L1834.57 518.501L1835.07 423.081C1835.05 421.766 1836.82 420.74 1838.31 421.203L1950.09 454.418L1948.46 458.233L1839.9 425.921L1839.43 521.402C1839.4 522.005 1839.06 522.647 1838.4 523.027Z" fill="#00D095"/>
<path d="M1462.62 -19.9072C1461.96 -19.5269 1461.57 -18.9343 1461.57 -18.2711L1461.07 77.1493L1352.54 44.8986C1351.05 44.4363 1349.28 45.4618 1349.29 46.7768L1348.76 142.22L1240.26 109.946C1238.73 109.507 1237 110.51 1237 111.836L1236.5 207.257L1127.97 175.006C1126.48 174.544 1124.71 175.569 1124.72 176.884L1124.23 272.304L1015.69 240.054C1014.18 239.603 1012.43 240.617 1012.45 241.932L1011.95 337.352L903.396 305.113C901.908 304.651 900.138 305.676 900.154 306.991L899.659 402.412L791.101 370.173C789.613 369.71 787.843 370.736 787.859 372.051L787.364 467.471L678.826 435.221C677.338 434.758 675.568 435.784 675.584 437.099L675.074 535.373L679.965 535.409L680.418 439.939L788.998 472.239C790.444 472.652 792.214 471.626 792.24 470.361L792.713 374.879L901.293 407.18C902.739 407.592 904.509 406.567 904.535 405.301L904.988 309.832L1013.57 342.132C1015.01 342.545 1016.78 341.519 1016.81 340.253L1017.28 244.772L1125.86 277.072C1127.31 277.485 1129.08 276.46 1129.1 275.194L1129.58 179.713L1238.16 212.013C1239.6 212.426 1241.37 211.4 1241.4 210.135L1241.85 114.665L1350.43 146.965C1351.88 147.378 1353.65 146.352 1353.67 145.087L1354.13 49.617L1462.73 81.9055C1464.15 82.33 1465.94 81.2929 1465.95 80.0388L1466.42 -15.4424L1574.98 16.8692L1576.62 13.0539L1464.82 -20.1773C1464.08 -20.4142 1463.26 -20.3038 1462.62 -19.9351L1462.62 -19.9072Z" fill="#00D095"/>
<path d="M492.031 512.309C491.375 512.689 490.569 512.788 489.835 512.551L381.236 480.263L380.782 575.732C380.737 577.009 378.986 578.024 377.54 577.611L268.961 545.31L268.507 640.78C268.482 642.046 266.711 643.071 265.265 642.658L156.699 610.375L156.226 705.856C156.201 707.122 154.43 708.147 152.984 707.734L44.4045 675.434L43.9313 770.916C43.9056 772.181 42.1355 773.207 40.6893 772.794L-67.8904 740.494L-68.3438 835.963C-68.3694 837.229 -70.1396 838.255 -71.5858 837.842L-180.165 805.542L-180.639 901.023C-180.664 902.288 -182.435 903.314 -183.881 902.901L-292.441 870.59L-292.894 966.059L-297.785 966.024L-297.289 867.733C-297.305 866.418 -295.534 865.392 -294.047 865.855L-185.509 898.105L-185.013 802.685C-185.03 801.37 -183.259 800.344 -181.772 800.807L-73.2136 833.046L-72.7185 737.626C-72.7347 736.311 -70.9645 735.285 -69.4766 735.747L39.0813 767.986L39.5764 672.566C39.5603 671.251 41.3304 670.226 42.8184 670.688L151.356 702.939L151.851 607.518C151.855 606.192 153.605 605.178 155.093 605.64L263.631 637.891L264.127 542.47C264.15 541.132 265.881 540.13 267.388 540.581L375.887 572.854L376.421 477.411C376.405 476.096 378.175 475.07 379.663 475.533L488.201 507.783L488.696 412.363C488.68 411.048 490.451 410.022 491.938 410.485L603.737 443.716L602.104 447.531L493.544 415.22L493.071 510.701C493.089 511.353 492.701 511.945 492.045 512.325L492.031 512.309Z" fill="#00D095"/>
<path d="M641.436 688.856C640.779 689.236 639.974 689.335 639.24 689.098L530.682 656.859L530.187 752.28C530.183 753.606 528.433 754.62 526.945 754.158L418.407 721.907L417.912 817.327C417.928 818.642 416.158 819.668 414.67 819.206L306.132 786.955L305.617 882.387C305.633 883.702 303.863 884.727 302.375 884.265L193.837 852.014L193.322 947.446C193.338 948.761 191.568 949.787 190.08 949.325L81.5419 917.074L81.0468 1012.49C81.0629 1013.81 79.2927 1014.83 77.8048 1014.37L-30.7332 982.122L-31.2482 1077.55C-31.232 1078.87 -33.0022 1079.89 -34.4901 1079.43L-143.028 1047.18L-143.503 1142.59L-148.353 1142.6L-147.898 1044.26C-147.872 1043 -146.102 1041.97 -144.656 1042.39L-36.0763 1074.69L-35.6229 979.216C-35.5973 977.95 -33.8271 976.925 -32.381 977.338L76.2187 1009.63L76.672 914.156C76.6977 912.891 78.4678 911.865 79.914 912.278L188.514 944.567L188.967 849.097C188.993 847.831 190.763 846.806 192.209 847.219L300.789 879.519L301.242 784.049C301.288 782.772 303.038 781.758 304.484 782.171L413.064 814.471L413.517 719.001C413.582 717.712 415.313 716.71 416.779 717.111L525.319 749.434L525.812 653.942C525.838 652.676 527.608 651.651 529.054 652.063L637.634 684.364L638.087 588.894C638.113 587.628 639.883 586.603 641.329 587.016L753.169 620.296L751.495 624.062L642.977 591.8L642.462 687.232C642.48 687.883 642.092 688.476 641.436 688.856Z" fill="#00D095"/>
<path d="M863.31 852.161C862.654 852.541 862.266 853.134 862.264 853.797L861.811 949.267L753.231 916.967C751.743 916.504 749.973 917.53 749.989 918.845L749.496 1014.34L640.956 982.015C639.428 981.575 637.698 982.578 637.694 983.904L637.241 1079.37L528.661 1047.07C527.173 1046.61 525.403 1047.64 525.419 1048.95L524.966 1144.42L416.386 1112.12C414.878 1111.67 413.128 1112.69 413.144 1114L412.691 1209.47L304.091 1177.18C302.603 1176.72 300.833 1177.74 300.849 1179.06L300.396 1274.53L191.796 1242.24C190.308 1241.78 188.538 1242.8 188.554 1244.12L188.101 1339.59L79.5212 1307.29C78.0333 1306.83 76.2631 1307.85 76.2793 1309.17L75.7826 1407.46L80.6739 1407.49L81.1272 1312.02L189.707 1344.32C191.195 1344.79 192.965 1343.76 192.949 1342.45L193.422 1246.96L302.002 1279.26C303.49 1279.73 305.26 1278.7 305.244 1277.39L305.697 1181.92L414.277 1214.22C415.765 1214.68 417.535 1213.65 417.519 1212.34L417.992 1116.86L526.572 1149.16C528.06 1149.62 529.83 1148.59 529.814 1147.28L530.287 1051.8L638.867 1084.1C640.355 1084.56 642.125 1083.53 642.109 1082.22L642.562 986.749L751.142 1019.05C752.63 1019.51 754.4 1018.49 754.384 1017.17L754.837 921.702L863.437 953.99C864.905 954.464 866.695 953.427 866.659 952.123L867.132 856.642L975.692 888.954L977.324 885.138L865.526 851.907C864.792 851.67 863.967 851.781 863.33 852.149L863.31 852.161Z" fill="#00D095"/>
<path d="M790.869 865.436C790.213 865.817 789.407 865.915 788.673 865.679L680.073 833.39L679.62 928.86C679.616 930.186 677.866 931.2 676.378 930.738L567.798 898.438L567.345 993.908C567.361 995.223 565.591 996.248 564.103 995.786L455.523 963.486L455.05 1058.97C455.066 1060.28 453.296 1061.31 451.808 1060.85L343.228 1028.55L342.755 1124.03C342.771 1125.34 341.001 1126.37 339.513 1125.9L230.934 1093.6L230.48 1189.07C230.496 1190.39 228.726 1191.41 227.238 1190.95L118.658 1158.65L118.185 1254.13C118.201 1255.45 116.431 1256.47 114.943 1256.01L6.36355 1223.71L5.93008 1319.17L1.0388 1319.13L1.54939 1220.86C1.53326 1219.55 3.3034 1218.52 4.79134 1218.98L113.371 1251.28L113.824 1155.81C113.808 1154.5 115.578 1153.47 117.066 1153.93L225.666 1186.22L226.119 1090.75C226.103 1089.44 227.873 1088.41 229.361 1088.87L337.961 1121.16L338.414 1025.69C338.398 1024.38 340.168 1023.35 341.656 1023.82L450.236 1056.12L450.689 960.646C450.693 959.319 452.443 958.305 453.931 958.767L562.511 991.067L562.964 895.598C562.988 894.26 564.718 893.257 566.226 893.708L674.766 926.031L675.259 830.538C675.243 829.223 677.013 828.198 678.501 828.66L787.081 860.96L787.534 765.49C787.518 764.175 789.288 763.15 790.776 763.612L902.561 796.827L900.928 800.642L792.368 768.331L791.895 863.812C791.913 864.464 791.525 865.056 790.869 865.436Z" fill="#00D095"/>
<path d="M713.892 675.597C713.236 675.977 712.848 676.57 712.846 677.233L712.393 772.703L603.813 740.403C602.367 739.99 600.597 741.015 600.571 742.281L600.078 837.774L491.538 805.451C490.052 805.061 488.322 806.063 488.276 807.34L487.823 902.81L379.243 870.51C377.797 870.097 376.027 871.123 376.001 872.388L375.548 967.858L266.968 935.558C265.502 935.157 263.752 936.171 263.726 937.436L263.273 1032.91L154.673 1000.62C153.227 1000.2 151.457 1001.23 151.431 1002.5L150.978 1097.97L42.3783 1065.68C40.9321 1065.26 39.162 1066.29 39.1363 1067.56L38.683 1163.02L-69.8967 1130.72C-71.3429 1130.31 -73.113 1131.34 -73.1387 1132.6L-73.5936 1230.94L-68.7441 1230.93L-68.2489 1135.51L40.289 1167.76C41.7769 1168.22 43.5471 1167.2 43.5309 1165.88L44.046 1070.45L152.584 1102.7C154.072 1103.16 155.842 1102.14 155.826 1100.82L156.321 1005.4L264.859 1037.65C266.347 1038.11 268.117 1037.09 268.101 1035.77L268.616 940.342L377.154 972.593C378.642 973.055 380.412 972.03 380.396 970.715L380.911 875.283L489.449 907.534C490.937 907.996 492.707 906.97 492.691 905.655L493.186 810.235L601.724 842.486C603.212 842.948 604.982 841.922 604.966 840.607L605.461 745.187L714.019 777.426C715.487 777.9 717.277 776.863 717.241 775.559L717.756 680.128L826.274 712.39L827.948 708.624L716.108 675.343C715.374 675.106 714.549 675.217 713.912 675.586L713.892 675.597Z" fill="#00D095"/>
<path d="M564.5 499.066C563.844 499.446 563.456 500.039 563.454 500.702L562.959 596.123L454.421 563.872C452.933 563.41 451.163 564.435 451.179 565.75L450.644 661.194L342.146 628.92C340.618 628.481 338.888 629.483 338.884 630.81L338.389 726.23L229.851 693.979C228.363 693.517 226.593 694.542 226.609 695.857L226.114 791.278L117.576 759.027C116.068 758.576 114.318 759.59 114.334 760.905L113.839 856.326L5.28088 824.087C3.79296 823.624 2.02278 824.65 2.03891 825.965L1.5438 921.385L-107.014 889.146C-108.502 888.684 -110.272 889.709 -110.256 891.024L-110.751 986.445L-219.289 954.194C-220.777 953.732 -222.547 954.757 -222.531 956.072L-223.042 1054.35L-218.15 1054.38L-217.697 958.912L-109.117 991.212C-107.671 991.625 -105.901 990.6 -105.875 989.334L-105.402 893.853L3.17764 926.153C4.62381 926.566 6.39396 925.54 6.41961 924.275L6.87297 828.805L115.453 861.105C116.899 861.518 118.669 860.492 118.695 859.227L119.168 763.746L227.748 796.046C229.194 796.459 230.964 795.433 230.99 794.167L231.463 698.686L340.043 730.986C341.489 731.399 343.259 730.374 343.284 729.108L343.738 633.638L452.318 665.938C453.764 666.351 455.534 665.326 455.559 664.06L456.013 568.59L564.613 600.879C566.039 601.303 567.829 600.266 567.835 599.012L568.308 503.531L676.868 535.842L678.5 532.027L566.702 498.796C565.968 498.559 565.142 498.669 564.506 499.038L564.5 499.066Z" fill="#00D095"/>
</g>
</g>
<defs>
<linearGradient id="paint0_linear_6_1479" x1="622.766" y1="16.1417" x2="1184.17" y2="517.217" gradientUnits="userSpaceOnUse">
<stop stop-color="#E1F4F5"/>
<stop offset="0.470989" stop-color="#E1F4F5"/>
<stop offset="0.850411" stop-color="#D6EBF0"/>
</linearGradient>
</defs>
</svg>
