<svg width="1300" height="893" viewBox="0 0 1300 893" fill="none" xmlns="http://www.w3.org/2000/svg">
<g opacity="0.15">
<mask id="mask0_1_660" style="mask-type:alpha" maskUnits="userSpaceOnUse" x="0" y="0" width="1300" height="893">
<path d="M0 0H1300V893H0V0Z" fill="url(#paint0_linear_1_660)"/>
</mask>
<g mask="url(#mask0_1_660)">
<path d="M1390.15 50.0718C1389.49 50.53 1388.68 50.6492 1387.95 50.3636L1279.35 11.4484L1278.9 126.512C1278.85 128.051 1277.1 129.273 1275.66 128.776L1167.08 89.8464L1166.62 204.91C1166.6 206.435 1164.83 207.671 1163.38 207.174L1054.81 168.264L1054.34 283.342C1054.32 284.867 1052.55 286.103 1051.1 285.605L942.52 246.676L942.046 361.754C942.021 363.279 940.251 364.515 938.805 364.017L830.225 325.088L829.771 440.152C829.746 441.677 827.976 442.913 826.529 442.415L717.95 403.486L717.476 518.564C717.451 520.089 715.681 521.325 714.235 520.827L605.675 481.884L605.221 596.948L600.33 596.905L600.827 478.441C600.811 476.856 602.581 475.62 604.069 476.178L712.607 515.047L713.102 400.043C713.086 398.458 714.856 397.222 716.344 397.78L824.902 436.635L825.397 321.631C825.381 320.046 827.151 318.81 828.639 319.368L937.196 358.223L937.692 243.219C937.675 241.635 939.446 240.399 940.934 240.956L1049.47 279.825L1049.97 164.821C1049.97 163.223 1051.72 162 1053.21 162.558L1161.75 201.427L1162.24 86.4234C1162.27 84.8107 1164 83.6024 1165.5 84.1457L1274 123.043L1274.54 8.01142C1274.52 6.42649 1276.29 5.19045 1277.78 5.74766L1386.32 44.6174L1386.81 -70.3866C1386.8 -71.9716 1388.57 -73.2076 1390.05 -72.6504L1501.85 -32.5989L1500.22 -28.0007L1391.66 -66.9438L1391.19 48.1336C1391.2 48.9191 1390.82 49.6333 1390.16 50.0916L1390.15 50.0718Z" fill="#00D095"/>
<path d="M1910.84 672.475C1910.19 672.933 1909.84 673.707 1909.84 674.506L1909.34 789.51L1800.81 750.64C1799.32 750.083 1797.55 751.319 1797.56 752.904L1797.03 867.936L1688.53 829.038C1687 828.509 1685.27 829.717 1685.27 831.316L1684.77 946.32L1576.24 907.45C1574.75 906.893 1572.98 908.129 1572.99 909.714L1572.5 1024.72L1463.96 985.848C1462.45 985.305 1460.7 986.527 1460.72 988.112L1460.22 1103.12L1351.67 1064.26C1350.18 1063.7 1348.41 1064.94 1348.42 1066.52L1347.93 1181.53L1239.37 1142.67C1237.88 1142.12 1236.11 1143.35 1236.13 1144.94L1235.63 1259.94L1127.1 1221.07C1125.61 1220.51 1123.84 1221.75 1123.85 1223.33L1123.34 1341.78L1128.24 1341.82L1128.69 1226.76L1237.27 1265.69C1238.71 1266.18 1240.48 1264.95 1240.51 1263.42L1240.98 1148.35L1349.56 1187.27C1351.01 1187.77 1352.78 1186.54 1352.81 1185.01L1353.26 1069.95L1461.84 1108.88C1463.28 1109.37 1465.05 1108.14 1465.08 1106.61L1465.55 991.535L1574.13 1030.46C1575.58 1030.96 1577.35 1029.73 1577.38 1028.2L1577.85 913.123L1686.43 952.052C1687.87 952.55 1689.64 951.314 1689.67 949.789L1690.12 834.725L1798.7 873.654C1800.15 874.152 1801.92 872.916 1801.95 871.391L1802.4 756.327L1911 795.242C1912.42 795.754 1914.21 794.504 1914.22 792.993L1914.69 677.915L2023.25 716.858L2024.89 712.26L1913.09 672.209C1912.35 671.923 1911.49 671.997 1910.85 672.441L1910.84 672.475Z" fill="#00D095"/>
<path d="M1539.55 262.853C1538.89 263.311 1538.09 263.43 1537.35 263.145L1428.8 224.289L1428.3 339.293C1428.3 340.892 1426.55 342.114 1425.06 341.557L1316.52 302.687L1316.03 417.691C1316.04 419.276 1314.27 420.512 1312.78 419.955L1204.25 381.085L1203.73 496.103C1203.75 497.688 1201.98 498.924 1200.49 498.367L1091.95 459.497L1091.44 574.515C1091.45 576.1 1089.68 577.336 1088.2 576.779L979.657 537.909L979.162 652.913C979.178 654.498 977.408 655.734 975.92 655.177L867.382 616.307L866.867 731.325C866.883 732.91 865.113 734.146 863.625 733.589L755.087 694.719L754.612 809.709L749.762 809.726L750.217 691.203C750.243 689.677 752.013 688.441 753.459 688.939L862.039 727.868L862.492 612.805C862.518 611.279 864.288 610.043 865.734 610.541L974.334 649.456L974.787 534.393C974.813 532.867 976.583 531.631 978.029 532.129L1086.63 571.044L1087.08 455.981C1087.11 454.455 1088.88 453.219 1090.32 453.717L1198.9 492.646L1199.36 377.583C1199.4 376.043 1201.15 374.821 1202.6 375.319L1311.18 414.248L1311.63 299.185C1311.7 297.631 1313.43 296.423 1314.89 296.907L1423.43 335.864L1423.93 220.773C1423.95 219.247 1425.72 218.011 1427.17 218.509L1535.75 257.438L1536.2 142.375C1536.23 140.849 1538 139.613 1539.44 140.111L1651.28 180.222L1649.61 184.761L1541.09 145.877L1540.58 260.895C1540.59 261.68 1540.21 262.394 1539.55 262.853Z" fill="#00D095"/>
<path d="M1761.43 459.674C1760.77 460.132 1760.38 460.846 1760.38 461.646L1759.93 576.709L1651.35 537.78C1649.86 537.223 1648.09 538.459 1648.1 540.044L1647.61 655.135L1539.07 616.178C1537.54 615.649 1535.81 616.857 1535.81 618.456L1535.36 733.519L1426.78 694.59C1425.29 694.033 1423.52 695.269 1423.53 696.854L1423.08 811.917L1314.5 772.988C1312.99 772.445 1311.24 773.667 1311.26 775.252L1310.81 890.315L1202.21 851.4C1200.72 850.843 1198.95 852.079 1198.96 853.664L1198.51 968.727L1089.91 929.812C1088.42 929.255 1086.65 930.491 1086.67 932.076L1086.22 1047.14L977.636 1008.21C976.149 1007.65 974.378 1008.89 974.395 1010.47L973.898 1128.94L978.789 1128.98L979.242 1013.92L1087.82 1052.85C1089.31 1053.4 1091.08 1052.17 1091.06 1050.58L1091.54 935.505L1200.12 974.434C1201.61 974.991 1203.38 973.755 1203.36 972.17L1203.81 857.106L1312.39 896.036C1313.88 896.593 1315.65 895.357 1315.63 893.772L1316.11 778.695L1424.69 817.624C1426.17 818.181 1427.95 816.945 1427.93 815.36L1428.4 700.283L1536.98 739.212C1538.47 739.769 1540.24 738.533 1540.22 736.948L1540.68 621.885L1649.26 660.814C1650.74 661.371 1652.52 660.135 1652.5 658.55L1652.95 543.487L1761.55 582.402C1763.02 582.973 1764.81 581.723 1764.77 580.152L1765.25 465.075L1873.81 504.018L1875.44 499.419L1763.64 459.368C1762.91 459.082 1762.08 459.215 1761.45 459.66L1761.43 459.674Z" fill="#00D095"/>
<path d="M1688.98 475.674C1688.33 476.132 1687.52 476.251 1686.79 475.966L1578.19 437.05L1577.74 552.114C1577.73 553.713 1575.98 554.935 1574.49 554.378L1465.91 515.448L1465.46 630.512C1465.48 632.097 1463.71 633.333 1462.22 632.776L1353.64 593.846L1353.17 708.924C1353.18 710.509 1351.41 711.745 1349.92 711.188L1241.34 672.258L1240.87 787.336C1240.89 788.921 1239.12 790.157 1237.63 789.599L1129.05 750.67L1128.6 865.734C1128.61 867.319 1126.84 868.555 1125.35 867.998L1016.77 829.068L1016.3 944.146C1016.32 945.731 1014.55 946.967 1013.06 946.409L904.479 907.48L904.045 1022.53L899.154 1022.49L899.665 904.043C899.648 902.458 901.419 901.222 902.907 901.78L1011.49 940.709L1011.94 825.645C1011.92 824.06 1013.69 822.824 1015.18 823.382L1123.78 862.297L1124.23 747.233C1124.22 745.648 1125.99 744.412 1127.48 744.97L1236.08 783.885L1236.53 668.821C1236.51 667.236 1238.28 666 1239.77 666.558L1348.35 705.487L1348.8 590.423C1348.81 588.825 1350.56 587.602 1352.05 588.16L1460.63 627.089L1461.08 512.025C1461.1 510.413 1462.83 509.204 1464.34 509.748L1572.88 548.705L1573.37 433.613C1573.36 432.028 1575.13 430.792 1576.62 431.35L1685.2 470.279L1685.65 355.215C1685.63 353.63 1687.4 352.394 1688.89 352.952L1800.68 392.983L1799.04 397.581L1690.48 358.638L1690.01 473.716C1690.03 474.501 1689.64 475.215 1688.98 475.674Z" fill="#00D095"/>
<path d="M1612.01 246.872C1611.35 247.331 1610.96 248.045 1610.96 248.844L1610.51 363.908L1501.93 324.979C1500.48 324.481 1498.71 325.717 1498.69 327.242L1498.19 442.334L1389.65 403.377C1388.17 402.907 1386.44 404.115 1386.39 405.654L1385.94 520.718L1277.36 481.789C1275.91 481.291 1274.14 482.527 1274.12 484.052L1273.66 599.116L1165.08 560.187C1163.62 559.703 1161.87 560.925 1161.84 562.45L1161.39 677.514L1052.79 638.599C1051.34 638.101 1049.57 639.337 1049.55 640.862L1049.09 755.926L940.494 717.011C939.047 716.513 937.277 717.749 937.252 719.274L936.798 834.338L828.218 795.409C826.772 794.911 825.002 796.147 824.977 797.672L824.522 916.195L829.371 916.179L829.866 801.175L938.404 840.044C939.892 840.602 941.662 839.366 941.646 837.781L942.161 722.763L1050.7 761.632C1052.19 762.19 1053.96 760.954 1053.94 759.369L1054.44 644.365L1162.97 683.234C1164.46 683.792 1166.23 682.556 1166.22 680.971L1166.73 565.953L1275.27 604.822C1276.76 605.38 1278.53 604.144 1278.51 602.559L1279.03 487.541L1387.56 526.411C1389.05 526.968 1390.82 525.732 1390.81 524.147L1391.3 409.143L1499.84 448.012C1501.33 448.57 1503.1 447.334 1503.08 445.749L1503.58 330.745L1612.13 369.601C1613.6 370.172 1615.39 368.922 1615.36 367.351L1615.87 252.333L1724.39 291.216L1726.06 286.678L1614.22 246.567C1613.49 246.281 1612.66 246.414 1612.03 246.859L1612.01 246.872Z" fill="#00D095"/>
<path d="M1838.4 688.475C1837.75 688.933 1836.9 688.993 1836.21 688.767L1727.61 649.852L1727.15 764.915C1727.11 766.454 1725.36 767.676 1723.91 767.179L1615.33 728.25L1614.88 843.313C1614.85 844.839 1613.08 846.075 1611.64 845.577L1503.06 806.648L1502.58 921.725C1502.56 923.25 1500.79 924.486 1499.34 923.989L1390.76 885.06L1390.29 1000.14C1390.26 1001.66 1388.49 1002.9 1387.05 1002.4L1278.47 963.472L1278.01 1078.54C1277.99 1080.06 1276.22 1081.3 1274.77 1080.8L1166.19 1041.87L1165.72 1156.95C1165.69 1158.47 1163.92 1159.71 1162.48 1159.21L1053.9 1120.28L1053.46 1235.33L1048.57 1235.29L1049.08 1116.84C1049.07 1115.26 1050.84 1114.02 1052.32 1114.58L1160.86 1153.45L1161.36 1038.45C1161.34 1036.86 1163.11 1035.63 1164.6 1036.18L1273.16 1075.04L1273.65 960.035C1273.64 958.45 1275.41 957.214 1276.89 957.771L1385.45 996.627L1385.95 881.623C1385.93 880.038 1387.7 878.802 1389.19 879.359L1497.73 918.229L1498.22 803.225C1498.23 801.626 1499.98 800.404 1501.46 800.961L1610 839.831L1610.5 724.827C1610.52 723.214 1612.25 722.006 1613.76 722.549L1722.26 761.446L1722.79 646.415C1722.78 644.83 1724.55 643.594 1726.03 644.151L1834.57 683.021L1835.07 568.017C1835.05 566.432 1836.82 565.196 1838.31 565.753L1950.09 605.784L1948.46 610.383L1839.9 571.44L1839.43 686.517C1839.4 687.243 1839.06 688.017 1838.4 688.475Z" fill="#00D095"/>
<path d="M1462.62 34.111C1461.96 34.5693 1461.57 35.2835 1461.57 36.0829L1461.07 151.087L1352.54 112.217C1351.05 111.66 1349.28 112.896 1349.29 114.481L1348.76 229.513L1240.26 190.615C1238.73 190.086 1237 191.294 1237 192.893L1236.5 307.897L1127.97 269.027C1126.48 268.47 1124.71 269.706 1124.72 271.291L1124.23 386.295L1015.69 347.425C1014.18 346.882 1012.43 348.104 1012.45 349.689L1011.95 464.693L903.396 425.837C901.908 425.28 900.138 426.516 900.154 428.101L899.659 543.105L791.101 504.249C789.613 503.692 787.843 504.928 787.859 506.513L787.364 621.517L678.826 582.647C677.338 582.09 675.568 583.326 675.584 584.911L675.074 703.354L679.965 703.397L680.418 588.334L788.998 627.263C790.444 627.761 792.214 626.525 792.24 624.999L792.713 509.922L901.293 548.851C902.739 549.349 904.509 548.113 904.535 546.587L904.988 431.524L1013.57 470.453C1015.01 470.951 1016.78 469.715 1016.81 468.189L1017.28 353.112L1125.86 392.041C1127.31 392.539 1129.08 391.303 1129.1 389.777L1129.58 274.7L1238.16 313.629C1239.6 314.127 1241.37 312.891 1241.4 311.366L1241.85 196.302L1350.43 235.231C1351.88 235.729 1353.65 234.493 1353.67 232.967L1354.13 117.904L1462.73 156.819C1464.15 157.331 1465.94 156.081 1465.95 154.569L1466.42 39.4921L1574.98 78.4351L1576.62 73.8369L1464.82 33.7855C1464.08 33.4999 1463.26 33.6329 1462.62 34.0773L1462.62 34.111Z" fill="#00D095"/>
<path d="M492.031 675.557C491.375 676.015 490.569 676.134 489.835 675.849L381.236 636.934L380.782 751.997C380.737 753.536 378.986 754.758 377.54 754.261L268.961 715.332L268.507 830.395C268.482 831.92 266.711 833.156 265.265 832.659L156.699 793.749L156.226 908.827C156.201 910.352 154.43 911.588 152.984 911.091L44.4045 872.161L43.9312 987.239C43.9056 988.764 42.1354 990 40.6893 989.503L-67.8905 950.573L-68.3438 1065.64C-68.3695 1067.16 -70.1396 1068.4 -71.5858 1067.9L-180.165 1028.97L-180.639 1144.05C-180.664 1145.57 -182.435 1146.81 -183.881 1146.31L-292.441 1107.37L-292.894 1222.43L-297.785 1222.39L-297.289 1103.93C-297.305 1102.34 -295.534 1101.11 -294.047 1101.66L-185.509 1140.53L-185.013 1025.53C-185.03 1023.94 -183.259 1022.71 -181.772 1023.26L-73.2137 1062.12L-72.7186 947.117C-72.7347 945.532 -70.9645 944.296 -69.4766 944.853L39.0813 983.709L39.5764 868.705C39.5603 867.12 41.3304 865.884 42.8183 866.441L151.356 905.311L151.851 790.307C151.855 788.708 153.605 787.486 155.093 788.043L263.631 826.913L264.126 711.909C264.15 710.296 265.88 709.088 267.388 709.631L375.886 748.528L376.421 633.497C376.405 631.912 378.175 630.676 379.663 631.233L488.201 670.103L488.696 555.099C488.68 553.514 490.45 552.278 491.938 552.835L603.737 592.886L602.104 597.484L493.544 558.541L493.071 673.619C493.089 674.404 492.701 675.118 492.045 675.577L492.031 675.557Z" fill="#00D095"/>
<path d="M641.436 888.338C640.779 888.796 639.974 888.915 639.24 888.63L530.682 849.774L530.187 964.778C530.183 966.377 528.433 967.599 526.945 967.042L418.407 928.172L417.912 1043.18C417.928 1044.76 416.158 1046 414.67 1045.44L306.132 1006.57L305.617 1121.59C305.633 1123.17 303.863 1124.41 302.375 1123.85L193.837 1084.98L193.322 1200C193.338 1201.58 191.568 1202.82 190.08 1202.26L81.5419 1163.39L81.0467 1278.4C81.0629 1279.98 79.2927 1281.22 77.8048 1280.66L-30.7332 1241.79L-31.2482 1356.81C-31.2321 1358.39 -33.0022 1359.63 -34.4901 1359.07L-143.028 1320.2L-143.503 1435.19L-148.353 1435.21L-147.898 1316.69C-147.872 1315.16 -146.102 1313.93 -144.656 1314.42L-36.0763 1353.35L-35.6229 1238.29C-35.5973 1236.76 -33.8271 1235.53 -32.381 1236.03L76.2187 1274.94L76.672 1159.88C76.6976 1158.35 78.4678 1157.12 79.9139 1157.61L188.514 1196.53L188.967 1081.47C188.993 1079.94 190.763 1078.7 192.209 1079.2L300.789 1118.13L301.242 1003.07C301.288 1001.53 303.038 1000.31 304.484 1000.8L413.064 1039.73L413.517 924.67C413.582 923.116 415.313 921.908 416.779 922.392L525.319 961.349L525.812 846.258C525.838 844.732 527.608 843.496 529.054 843.994L637.634 882.923L638.087 767.86C638.113 766.334 639.883 765.098 641.329 765.596L753.169 805.707L751.495 810.246L642.977 771.362L642.462 886.38C642.48 887.165 642.092 887.88 641.436 888.338Z" fill="#00D095"/>
<path d="M713.892 872.358C713.236 872.816 712.848 873.53 712.846 874.33L712.393 989.393L603.813 950.464C602.367 949.966 600.597 951.202 600.571 952.728L600.078 1067.82L491.538 1028.86C490.052 1028.39 488.322 1029.6 488.276 1031.14L487.823 1146.2L379.243 1107.27C377.797 1106.78 376.027 1108.01 376.001 1109.54L375.548 1224.6L266.968 1185.67C265.502 1185.19 263.752 1186.41 263.726 1187.94L263.273 1303L154.673 1264.08C153.227 1263.59 151.457 1264.82 151.431 1266.35L150.978 1381.41L42.3783 1342.5C40.9321 1342 39.162 1343.23 39.1364 1344.76L38.683 1459.82L-69.8967 1420.89C-71.3429 1420.4 -73.1131 1421.63 -73.1387 1423.16L-73.5936 1541.68L-68.7441 1541.66L-68.2489 1426.66L40.289 1465.53C41.7769 1466.09 43.5471 1464.85 43.531 1463.27L44.046 1348.25L152.584 1387.12C154.072 1387.67 155.842 1386.44 155.826 1384.85L156.321 1269.85L264.859 1308.72C266.347 1309.28 268.117 1308.04 268.101 1306.46L268.616 1191.44L377.154 1230.31C378.642 1230.86 380.412 1229.63 380.396 1228.04L380.911 1113.03L489.449 1151.9C490.937 1152.45 492.707 1151.22 492.691 1149.63L493.186 1034.63L601.724 1073.5C603.212 1074.05 604.982 1072.82 604.966 1071.23L605.461 956.23L714.019 995.086C715.487 995.657 717.277 994.407 717.241 992.836L717.756 877.818L826.274 916.702L827.948 912.163L716.108 872.052C715.374 871.766 714.549 871.899 713.912 872.344L713.892 872.358Z" fill="#00D095"/>
<path d="M564.5 659.596C563.844 660.054 563.456 660.769 563.454 661.568L562.959 776.572L454.421 737.702C452.933 737.145 451.163 738.381 451.179 739.966L450.644 854.998L342.146 816.1C340.618 815.571 338.888 816.779 338.884 818.378L338.389 933.382L229.851 894.512C228.363 893.955 226.593 895.191 226.609 896.776L226.114 1011.78L117.576 972.91C116.068 972.367 114.318 973.589 114.334 975.174L113.839 1090.18L5.28088 1051.32C3.79294 1050.77 2.02278 1052 2.03892 1053.59L1.54379 1168.59L-107.014 1129.73C-108.502 1129.18 -110.272 1130.41 -110.256 1132L-110.751 1247L-219.289 1208.13C-220.777 1207.58 -222.547 1208.81 -222.531 1210.4L-223.042 1328.84L-218.15 1328.88L-217.697 1213.82L-109.117 1252.75C-107.671 1253.25 -105.901 1252.01 -105.875 1250.48L-105.402 1135.41L3.17765 1174.34C4.62381 1174.83 6.39397 1173.6 6.41961 1172.07L6.87298 1057.01L115.453 1095.94C116.899 1096.44 118.669 1095.2 118.695 1093.67L119.168 978.597L227.748 1017.53C229.194 1018.02 230.964 1016.79 230.99 1015.26L231.463 900.185L340.043 939.114C341.489 939.612 343.259 938.376 343.285 936.851L343.738 821.787L452.318 860.716C453.764 861.214 455.534 859.978 455.56 858.453L456.013 743.389L564.613 782.304C566.039 782.816 567.829 781.566 567.835 780.055L568.308 664.977L676.868 703.92L678.5 699.322L566.702 659.271C565.968 658.985 565.142 659.118 564.506 659.563L564.5 659.596Z" fill="#00D095"/>
</g>
</g>
<defs>
<linearGradient id="paint0_linear_1_660" x1="622.766" y1="16.1417" x2="1184.17" y2="517.217" gradientUnits="userSpaceOnUse">
<stop stop-color="#E1F4F5"/>
<stop offset="0.470989" stop-color="#E1F4F5"/>
<stop offset="0.850411" stop-color="#D6EBF0"/>
</linearGradient>
</defs>
</svg>
