<svg width="27" height="26" viewBox="0 0 27 26" fill="none" xmlns="http://www.w3.org/2000/svg">
<path d="M13.4999 23.5625C14.6916 23.5625 15.6666 22.5875 15.6666 21.3958H11.3333C11.3333 22.5875 12.3083 23.5625 13.4999 23.5625ZM19.9999 17.0625V11.6458C19.9999 8.32 18.2341 5.53583 15.1249 4.79917V4.0625C15.1249 3.16333 14.3991 2.4375 13.4999 2.4375C12.6008 2.4375 11.8749 3.16333 11.8749 4.0625V4.79917C8.77659 5.53583 6.99992 8.30917 6.99992 11.6458V17.0625L4.83325 19.2292V20.3125H22.1666V19.2292L19.9999 17.0625ZM17.8333 18.1458H9.16658V11.6458C9.16658 8.95917 10.8024 6.77083 13.4999 6.77083C16.1974 6.77083 17.8333 8.95917 17.8333 11.6458V18.1458Z" fill="#1D5E6D"/>
</svg>
