<svg width="24" height="25" viewBox="0 0 24 25" fill="none" xmlns="http://www.w3.org/2000/svg">
<path d="M15.755 14.4539H14.965L14.685 14.1839C15.665 13.0439 16.255 11.5639 16.255 9.95392C16.255 6.36392 13.345 3.45392 9.755 3.45392C6.165 3.45392 3.255 6.36392 3.255 9.95392C3.255 13.5439 6.165 16.4539 9.755 16.4539C11.365 16.4539 12.845 15.8639 13.985 14.8839L14.255 15.1639V15.9539L19.255 20.9439L20.745 19.4539L15.755 14.4539ZM9.755 14.4539C7.265 14.4539 5.255 12.4439 5.255 9.95392C5.255 7.46392 7.265 5.45392 9.755 5.45392C12.245 5.45392 14.255 7.46392 14.255 9.95392C14.255 12.4439 12.245 14.4539 9.755 14.4539Z" fill="#616161"/>
</svg>
