<svg width="32" height="27" viewBox="0 0 32 27" fill="none" xmlns="http://www.w3.org/2000/svg">
<path d="M0.000228882 23.1002C0.480229 23.0402 0.950237 23.1502 1.43024 23.1502C4.31024 23.1302 6.94023 22.3402 9.28023 20.6502C9.34023 20.6102 9.40023 20.5602 9.45023 20.5202C9.46023 20.5102 9.47023 20.4902 9.49023 20.4402C9.11023 20.3702 8.73023 20.3302 8.36023 20.2402C6.14023 19.6902 4.60023 18.3402 3.70023 16.2502C3.50023 15.7902 3.52023 15.7702 4.03023 15.8402C4.78023 15.9502 5.52022 15.8602 6.26022 15.7102C5.34022 15.4402 4.50023 15.0402 3.77023 14.4502C2.20023 13.1902 1.38023 11.5402 1.25023 9.54018C1.23023 9.17018 1.26023 9.14018 1.60023 9.30018C2.00024 9.49018 2.41023 9.64018 2.83023 9.75018C3.22023 9.85018 3.62023 9.91018 4.08023 9.94018C3.78023 9.67018 3.52023 9.45018 3.27023 9.21018C1.19023 7.17018 0.710225 3.99018 2.09023 1.43018C2.26023 1.11018 2.36022 1.30018 2.48022 1.44018C3.61022 2.79018 4.92023 3.96018 6.38023 4.94018C8.76023 6.53018 11.3702 7.53018 14.2102 7.90018C14.5902 7.95018 14.9702 8.01018 15.3602 8.02018C15.6902 8.02018 15.7302 7.98018 15.6802 7.67018C15.4302 6.02018 15.7402 4.47018 16.6302 3.06018C18.8302 -0.449825 23.7702 -1.04982 26.7502 1.83018C26.9402 2.02018 27.1102 2.05018 27.3602 1.99018C28.5802 1.70018 29.7302 1.27018 30.8202 0.660176C30.9102 0.610176 30.9902 0.540176 31.1102 0.560176C31.1102 1.39018 29.9602 2.94018 28.5002 4.06018C29.1402 4.00018 29.7202 3.87018 30.2802 3.70018C30.8602 3.53018 31.4202 3.32018 31.9902 3.13018C32.0402 3.25018 31.9602 3.30018 31.9102 3.36018C31.1302 4.47018 30.2302 5.46018 29.1302 6.26018C28.8802 6.44018 28.8002 6.64018 28.8002 6.94018C28.8102 12.5902 26.7902 17.3802 22.7102 21.2802C20.1902 23.6902 17.1502 25.1402 13.7102 25.7702C12.1002 26.0702 10.4802 26.1602 8.85023 26.0502C5.87023 25.8502 3.08022 25.0102 0.510223 23.4602C0.340223 23.3602 0.160234 23.2702 -0.00976562 23.1802C-0.00976562 23.1602 -0.00976562 23.1402 -0.00976562 23.1202L0.000228882 23.1002Z" fill="white"/>
</svg>
