<svg width="18" height="33" viewBox="0 0 18 33" fill="none" xmlns="http://www.w3.org/2000/svg">
<path d="M11.63 24.8181C11.63 26.8081 11.63 28.7881 11.63 30.7781C11.63 30.9581 11.63 31.1381 11.6 31.3181C11.52 31.7981 11.31 31.9981 10.81 32.0081C9.07 32.0181 7.33 32.0181 5.59 32.0081C5.08 32.0081 4.87 31.7981 4.81 31.2781C4.78 31.0481 4.77 30.8081 4.77 30.5781C4.77 26.6181 4.77 22.6581 4.77 18.6981C4.77 18.1381 4.77 18.1381 4.21 18.1381C3.13 18.1381 2.05 18.1381 0.98 18.1381C0.24 18.1381 0.01 17.8981 0 17.1481C0 15.5981 0 14.0581 0 12.5081C0 11.7781 0.23 11.5481 0.96 11.5481C2.08 11.5481 3.19 11.5381 4.31 11.5481C4.67 11.5481 4.79 11.4381 4.78 11.0881C4.78 9.86815 4.78 8.64815 4.81 7.42815C4.9 3.46815 7.45 0.578148 11.36 0.118148C13.05 -0.0818519 14.76 0.0281484 16.46 0.0481484C17.06 0.0481484 17.26 0.308148 17.26 0.918148C17.26 2.40815 17.26 3.90815 17.26 5.39815C17.26 6.04815 17.02 6.27815 16.35 6.27815C15.44 6.28815 14.53 6.27815 13.62 6.28815C13.5 6.28815 13.39 6.28815 13.27 6.28815C12.04 6.35815 11.64 6.77815 11.62 8.00815C11.62 9.00815 11.62 10.0081 11.62 11.0081C11.62 11.3481 11.72 11.4581 12.07 11.4581C13.42 11.4381 14.77 11.4581 16.12 11.4581C16.88 11.4581 17.1 11.6781 17.1 12.4281C17.1 14.0081 17.1 15.5981 17.1 17.1781C17.1 17.8481 16.95 18.0181 16.3 18.0581C14.93 18.1481 13.55 18.0781 12.17 18.0981C11.63 18.0981 11.63 18.0981 11.63 18.6481C11.63 20.6981 11.63 22.7481 11.63 24.7981V24.8181Z" fill="white"/>
</svg>
