<svg width="26" height="26" viewBox="0 0 26 26" fill="none" xmlns="http://www.w3.org/2000/svg">
<path d="M13 7.60795C16.6393 7.60795 19.8848 9.65324 21.4692 12.8892C19.8848 16.1252 16.6489 18.1705 13 18.1705C9.35114 18.1705 6.11517 16.1252 4.5308 12.8892C6.11517 9.65324 9.36074 7.60795 13 7.60795ZM13 5.6875C8.19886 5.6875 4.09869 8.67381 2.4375 12.8892C4.09869 17.1046 8.19886 20.0909 13 20.0909C17.8011 20.0909 21.9013 17.1046 23.5625 12.8892C21.9013 8.67381 17.8011 5.6875 13 5.6875ZM13 10.4886C14.3251 10.4886 15.4006 11.5641 15.4006 12.8892C15.4006 14.2143 14.3251 15.2898 13 15.2898C11.6749 15.2898 10.5994 14.2143 10.5994 12.8892C10.5994 11.5641 11.6749 10.4886 13 10.4886ZM13 8.56818C10.6186 8.56818 8.67898 10.5078 8.67898 12.8892C8.67898 15.2706 10.6186 17.2102 13 17.2102C15.3814 17.2102 17.321 15.2706 17.321 12.8892C17.321 10.5078 15.3814 8.56818 13 8.56818Z" fill="#1D5E6D"/>
</svg>
