<svg width="24" height="24" viewBox="0 0 24 24" fill="none" xmlns="http://www.w3.org/2000/svg">
<path d="M12 7.02273C15.3593 7.02273 18.3552 8.91068 19.8177 11.8977C18.3552 14.8848 15.3682 16.7727 12 16.7727C8.63182 16.7727 5.64477 14.8848 4.18227 11.8977C5.64477 8.91068 8.64068 7.02273 12 7.02273ZM12 5.25C7.56818 5.25 3.78341 8.00659 2.25 11.8977C3.78341 15.7889 7.56818 18.5455 12 18.5455C16.4318 18.5455 20.2166 15.7889 21.75 11.8977C20.2166 8.00659 16.4318 5.25 12 5.25ZM12 9.68182C13.2232 9.68182 14.2159 10.6745 14.2159 11.8977C14.2159 13.1209 13.2232 14.1136 12 14.1136C10.7768 14.1136 9.78409 13.1209 9.78409 11.8977C9.78409 10.6745 10.7768 9.68182 12 9.68182ZM12 7.90909C9.80182 7.90909 8.01136 9.69955 8.01136 11.8977C8.01136 14.0959 9.80182 15.8864 12 15.8864C14.1982 15.8864 15.9886 14.0959 15.9886 11.8977C15.9886 9.69955 14.1982 7.90909 12 7.90909Z" fill="#616161"/>
</svg>
