<svg width="27" height="26" viewBox="0 0 27 26" fill="none" xmlns="http://www.w3.org/2000/svg">
<path d="M13.5 7.60795C17.1393 7.60795 20.3848 9.65324 21.9692 12.8892C20.3848 16.1252 17.1489 18.1705 13.5 18.1705C9.85114 18.1705 6.61517 16.1252 5.0308 12.8892C6.61517 9.65324 9.86074 7.60795 13.5 7.60795ZM13.5 5.6875C8.69886 5.6875 4.59869 8.67381 2.9375 12.8892C4.59869 17.1046 8.69886 20.0909 13.5 20.0909C18.3011 20.0909 22.4013 17.1046 24.0625 12.8892C22.4013 8.67381 18.3011 5.6875 13.5 5.6875ZM13.5 10.4886C14.8251 10.4886 15.9006 11.5641 15.9006 12.8892C15.9006 14.2143 14.8251 15.2898 13.5 15.2898C12.1749 15.2898 11.0994 14.2143 11.0994 12.8892C11.0994 11.5641 12.1749 10.4886 13.5 10.4886ZM13.5 8.56818C11.1186 8.56818 9.17898 10.5078 9.17898 12.8892C9.17898 15.2706 11.1186 17.2102 13.5 17.2102C15.8814 17.2102 17.821 15.2706 17.821 12.8892C17.821 10.5078 15.8814 8.56818 13.5 8.56818Z" fill="#1D5E6D"/>
</svg>
